<?xml version="1.0" encoding="UTF-8" standalone="no"?>
<!DOCTYPE svg PUBLIC "-//W3C//DTD SVG 1.1//EN"
 "http://www.w3.org/Graphics/SVG/1.1/DTD/svg11.dtd">
<!-- Generated by graphviz version 2.40.1 (20161225.0304)
 -->
<!-- Title: public.object_relationship Pages: 1 -->
<svg width="1015pt" height="472pt"
 viewBox="0.00 0.00 1015.00 472.00" xmlns="http://www.w3.org/2000/svg" xmlns:xlink="http://www.w3.org/1999/xlink">
<g id="graph0" class="graph" transform="scale(1 1) rotate(0) translate(4 468)">
<title>public.object_relationship</title>
<polygon fill="#ffffff" stroke="transparent" points="-4,4 -4,-468 1011,-468 1011,4 -4,4"/>
<!-- public.object_relationship -->
<g id="node1" class="node">
<title>public.object_relationship</title>
<polygon fill="#efefef" stroke="transparent" points="312,-382.5 312,-417.5 655,-417.5 655,-382.5 312,-382.5"/>
<polygon fill="none" stroke="#000000" points="312,-382.5 312,-417.5 655,-417.5 655,-382.5 312,-382.5"/>
<text text-anchor="start" x="318.6937" y="-395.3" font-family="Arial Bold" font-size="18.00" fill="#000000">public.object_relationship</text>
<text text-anchor="start" x="520.7383" y="-395.3" font-family="Arial" font-size="14.00" fill="#000000">    </text>
<text text-anchor="start" x="554.9431" y="-395.3" font-family="Arial" font-size="14.00" fill="#666666">[BASE TABLE]</text>
<polygon fill="none" stroke="#000000" points="312,-352.5 312,-382.5 655,-382.5 655,-352.5 312,-352.5"/>
<text text-anchor="start" x="319" y="-363.9" font-family="Arial" font-size="14.00" fill="#000000">object_relationship_id </text>
<text text-anchor="start" x="458.2566" y="-363.9" font-family="Arial" font-size="14.00" fill="#666666">[integer]</text>
<polygon fill="none" stroke="#000000" points="312,-322.5 312,-352.5 655,-352.5 655,-322.5 312,-322.5"/>
<text text-anchor="start" x="319" y="-333.9" font-family="Arial" font-size="14.00" fill="#000000">object_parent_id </text>
<text text-anchor="start" x="426.3716" y="-333.9" font-family="Arial" font-size="14.00" fill="#666666">[integer]</text>
<polygon fill="none" stroke="#000000" points="312,-292.5 312,-322.5 655,-322.5 655,-292.5 312,-292.5"/>
<text text-anchor="start" x="319" y="-303.9" font-family="Arial" font-size="14.00" fill="#000000">object_child_id </text>
<text text-anchor="start" x="415.4684" y="-303.9" font-family="Arial" font-size="14.00" fill="#666666">[integer]</text>
<polygon fill="none" stroke="#000000" points="312,-262.5 312,-292.5 655,-292.5 655,-262.5 312,-262.5"/>
<text text-anchor="start" x="319" y="-273.9" font-family="Arial" font-size="14.00" fill="#000000">qualifier_id </text>
<text text-anchor="start" x="390.5638" y="-273.9" font-family="Arial" font-size="14.00" fill="#666666">[integer]</text>
<polygon fill="none" stroke="#000000" stroke-width="3" points="310,-261.5 310,-419.5 656,-419.5 656,-261.5 310,-261.5"/>
</g>
<!-- public.object -->
<g id="node2" class="node">
<title>public.object</title>
<polygon fill="#efefef" stroke="transparent" points="363,-102.5 363,-137.5 604,-137.5 604,-102.5 363,-102.5"/>
<polygon fill="none" stroke="#000000" points="363,-102.5 363,-137.5 604,-137.5 604,-102.5 363,-102.5"/>
<text text-anchor="start" x="369.7039" y="-115.3" font-family="Arial Bold" font-size="18.00" fill="#000000">public.object</text>
<text text-anchor="start" x="469.7281" y="-115.3" font-family="Arial" font-size="14.00" fill="#000000">    </text>
<text text-anchor="start" x="503.9329" y="-115.3" font-family="Arial" font-size="14.00" fill="#666666">[BASE TABLE]</text>
<polygon fill="none" stroke="#000000" points="363,-72.5 363,-102.5 604,-102.5 604,-72.5 363,-72.5"/>
<text text-anchor="start" x="370" y="-83.9" font-family="Arial" font-size="14.00" fill="#000000">object_id    </text>
<text text-anchor="start" x="460.2216" y="-83.9" font-family="Arial" font-size="14.00" fill="#666666">[integer]</text>
<polygon fill="none" stroke="#000000" points="363,-42.5 363,-72.5 604,-72.5 604,-42.5 363,-42.5"/>
<text text-anchor="start" x="370" y="-53.9" font-family="Arial" font-size="14.00" fill="#000000">object_type_id    </text>
<text text-anchor="start" x="494.46" y="-53.9" font-family="Arial" font-size="14.00" fill="#666666">[integer]</text>
</g>
<!-- public.object_relationship&#45;&gt;public.object -->
<g id="edge1" class="edge">
<title>public.object_relationship:object_parent_id&#45;&gt;public.object:object_id</title>
<path fill="none" stroke="#000000" d="M301.8473,-336.7828C201.8489,-322.1191 253.1442,-87.5 363,-87.5"/>
<polygon fill="#000000" stroke="#000000" points="302.0249,-336.7953 311.6829,-341.9888 307.0124,-337.1476 312,-337.5 312,-337.5 312,-337.5 307.0124,-337.1476 312.3171,-333.0112 302.0249,-336.7953 302.0249,-336.7953"/>
<text text-anchor="start" x="6.538" y="-347.5" font-family="Arial" font-size="10.00" fill="#000000">FOREIGN KEY (object_parent_id) REFERENCES object(object_id)</text>
</g>
<!-- public.object_relationship&#45;&gt;public.object -->
<g id="edge2" class="edge">
<title>public.object_relationship:object_child_id&#45;&gt;public.object:object_id</title>
<path fill="none" stroke="#000000" d="M301.9709,-306.7034C215.2763,-292.3032 266.158,-87.5 363,-87.5"/>
<polygon fill="#000000" stroke="#000000" points="302.0314,-306.7081 311.6436,-311.9859 307.0157,-307.1041 312,-307.5 312,-307.5 312,-307.5 307.0157,-307.1041 312.3564,-303.0141 302.0314,-306.7081 302.0314,-306.7081"/>
<text text-anchor="start" x="14.432" y="-317.5" font-family="Arial" font-size="10.00" fill="#000000">FOREIGN KEY (object_child_id) REFERENCES object(object_id)</text>
</g>
<!-- public.qualifier -->
<g id="node3" class="node">
<title>public.qualifier</title>
<polygon fill="#efefef" stroke="transparent" points="708,-102.5 708,-137.5 964,-137.5 964,-102.5 708,-102.5"/>
<polygon fill="none" stroke="#000000" points="708,-102.5 708,-137.5 964,-137.5 964,-102.5 708,-102.5"/>
<text text-anchor="start" x="714.7105" y="-115.3" font-family="Arial Bold" font-size="18.00" fill="#000000">public.qualifier</text>
<text text-anchor="start" x="829.7215" y="-115.3" font-family="Arial" font-size="14.00" fill="#000000">    </text>
<text text-anchor="start" x="863.9263" y="-115.3" font-family="Arial" font-size="14.00" fill="#666666">[BASE TABLE]</text>
<polygon fill="none" stroke="#000000" points="708,-72.5 708,-102.5 964,-102.5 964,-72.5 708,-72.5"/>
<text text-anchor="start" x="715" y="-83.9" font-family="Arial" font-size="14.00" fill="#000000">qualifier_id    </text>
<text text-anchor="start" x="816.878" y="-83.9" font-family="Arial" font-size="14.00" fill="#666666">[integer]</text>
<polygon fill="none" stroke="#000000" points="708,-42.5 708,-72.5 964,-72.5 964,-42.5 708,-42.5"/>
<text text-anchor="start" x="715" y="-53.9" font-family="Arial" font-size="14.00" fill="#000000">value    </text>
<text text-anchor="start" x="782.6592" y="-53.9" font-family="Arial" font-size="14.00" fill="#666666">[json]</text>
</g>
<!-- public.object_relationship&#45;&gt;public.qualifier -->
<g id="edge3" class="edge">
<title>public.object_relationship:qualifier_id&#45;&gt;public.qualifier:qualifier_id</title>
<path fill="none" stroke="#000000" d="M665.1711,-276.4777C732.5427,-261.5227 624.0987,-87.5 708,-87.5"/>
<polygon fill="#000000" stroke="#000000" points="664.9499,-276.4999 654.55,-273.0226 659.9749,-276.9999 655,-277.5 655,-277.5 655,-277.5 659.9749,-276.9999 655.45,-281.9774 664.9499,-276.4999 664.9499,-276.4999"/>
<text text-anchor="start" x="662.0005" y="-287.5" font-family="Arial" font-size="10.00" fill="#000000">FOREIGN KEY (qualifier_id) REFERENCES qualifier(qualifier_id)</text>
</g>
</g>
</svg>
