<?xml version="1.0" encoding="UTF-8" standalone="no"?>
<!DOCTYPE svg PUBLIC "-//W3C//DTD SVG 1.1//EN"
 "http://www.w3.org/Graphics/SVG/1.1/DTD/svg11.dtd">
<!-- Generated by graphviz version 2.40.1 (20161225.0304)
 -->
<!-- Title: public.event_attribute_value Pages: 1 -->
<svg width="1042pt" height="502pt"
 viewBox="0.00 0.00 1042.00 502.00" xmlns="http://www.w3.org/2000/svg" xmlns:xlink="http://www.w3.org/1999/xlink">
<g id="graph0" class="graph" transform="scale(1 1) rotate(0) translate(4 498)">
<title>public.event_attribute_value</title>
<polygon fill="#ffffff" stroke="transparent" points="-4,4 -4,-498 1038,-498 1038,4 -4,4"/>
<!-- public.event_attribute_value -->
<g id="node1" class="node">
<title>public.event_attribute_value</title>
<polygon fill="#efefef" stroke="transparent" points="272,-412.5 272,-447.5 637,-447.5 637,-412.5 272,-412.5"/>
<polygon fill="none" stroke="#000000" points="272,-412.5 272,-447.5 637,-447.5 637,-412.5 272,-412.5"/>
<text text-anchor="start" x="278.6795" y="-425.3" font-family="Arial Bold" font-size="18.00" fill="#000000">public.event_attribute_value</text>
<text text-anchor="start" x="502.7525" y="-425.3" font-family="Arial" font-size="14.00" fill="#000000">    </text>
<text text-anchor="start" x="536.9573" y="-425.3" font-family="Arial" font-size="14.00" fill="#666666">[BASE TABLE]</text>
<polygon fill="none" stroke="#000000" points="272,-382.5 272,-412.5 637,-412.5 637,-382.5 272,-382.5"/>
<text text-anchor="start" x="279" y="-393.9" font-family="Arial" font-size="14.00" fill="#000000">event_attribute_value_id </text>
<text text-anchor="start" x="435.3898" y="-393.9" font-family="Arial" font-size="14.00" fill="#666666">[integer]</text>
<polygon fill="none" stroke="#000000" points="272,-352.5 272,-382.5 637,-382.5 637,-352.5 272,-352.5"/>
<text text-anchor="start" x="279" y="-363.9" font-family="Arial" font-size="14.00" fill="#000000">event_id </text>
<text text-anchor="start" x="335.8008" y="-363.9" font-family="Arial" font-size="14.00" fill="#666666">[integer]</text>
<polygon fill="none" stroke="#000000" points="272,-322.5 272,-352.5 637,-352.5 637,-322.5 272,-322.5"/>
<text text-anchor="start" x="279" y="-333.9" font-family="Arial" font-size="14.00" fill="#000000">event_attribute_id </text>
<text text-anchor="start" x="394.1528" y="-333.9" font-family="Arial" font-size="14.00" fill="#666666">[integer]</text>
<polygon fill="none" stroke="#000000" points="272,-292.5 272,-322.5 637,-322.5 637,-292.5 272,-292.5"/>
<text text-anchor="start" x="279" y="-303.9" font-family="Arial" font-size="14.00" fill="#000000">value </text>
<text text-anchor="start" x="316.345" y="-303.9" font-family="Arial" font-size="14.00" fill="#666666">[json]</text>
<polygon fill="none" stroke="#000000" stroke-width="3" points="270,-291.5 270,-449.5 638,-449.5 638,-291.5 270,-291.5"/>
</g>
<!-- public.event -->
<g id="node2" class="node">
<title>public.event</title>
<polygon fill="#efefef" stroke="transparent" points="102,-132.5 102,-167.5 399,-167.5 399,-132.5 102,-132.5"/>
<polygon fill="none" stroke="#000000" points="102,-132.5 102,-167.5 399,-167.5 399,-132.5 102,-132.5"/>
<text text-anchor="start" x="138.701" y="-145.3" font-family="Arial Bold" font-size="18.00" fill="#000000">public.event</text>
<text text-anchor="start" x="234.731" y="-145.3" font-family="Arial" font-size="14.00" fill="#000000">    </text>
<text text-anchor="start" x="268.9358" y="-145.3" font-family="Arial" font-size="14.00" fill="#666666">[BASE TABLE]</text>
<polygon fill="none" stroke="#000000" points="102,-102.5 102,-132.5 399,-132.5 399,-102.5 102,-102.5"/>
<text text-anchor="start" x="109" y="-113.9" font-family="Arial" font-size="14.00" fill="#000000">event_id    </text>
<text text-anchor="start" x="196.115" y="-113.9" font-family="Arial" font-size="14.00" fill="#666666">[integer]</text>
<polygon fill="none" stroke="#000000" points="102,-72.5 102,-102.5 399,-102.5 399,-72.5 102,-72.5"/>
<text text-anchor="start" x="109" y="-83.9" font-family="Arial" font-size="14.00" fill="#000000">event_type_id    </text>
<text text-anchor="start" x="230.3534" y="-83.9" font-family="Arial" font-size="14.00" fill="#666666">[integer]</text>
<polygon fill="none" stroke="#000000" points="102,-42.5 102,-72.5 399,-72.5 399,-42.5 102,-42.5"/>
<text text-anchor="start" x="108.5491" y="-53.9" font-family="Arial" font-size="14.00" fill="#000000">timestamp    </text>
<text text-anchor="start" x="207.3107" y="-53.9" font-family="Arial" font-size="14.00" fill="#666666">[timestamp without time zone]</text>
</g>
<!-- public.event_attribute_value&#45;&gt;public.event -->
<g id="edge1" class="edge">
<title>public.event_attribute_value:event_id&#45;&gt;public.event:event_id</title>
<path fill="none" stroke="#000000" d="M262.0454,-366.4457C221.4027,-357.0302 241.9123,-286.8019 272,-247 307.3785,-200.199 363.6215,-257.801 399,-211 424.0591,-177.8502 440.5556,-117.5 399,-117.5"/>
<polygon fill="#000000" stroke="#000000" points="262.0556,-366.4467 271.526,-371.975 267.0278,-366.9733 272,-367.5 272,-367.5 272,-367.5 267.0278,-366.9733 272.474,-363.025 262.0556,-366.4467 262.0556,-366.4467"/>
<text text-anchor="start" x="6.818" y="-377.5" font-family="Arial" font-size="10.00" fill="#000000">FOREIGN KEY (event_id) REFERENCES event(event_id)</text>
</g>
<!-- public.event_attribute -->
<g id="node3" class="node">
<title>public.event_attribute</title>
<polygon fill="#efefef" stroke="transparent" points="503,-132.5 503,-167.5 815,-167.5 815,-132.5 503,-132.5"/>
<polygon fill="none" stroke="#000000" points="503,-132.5 503,-167.5 815,-167.5 815,-132.5 503,-132.5"/>
<text text-anchor="start" x="509.689" y="-145.3" font-family="Arial Bold" font-size="18.00" fill="#000000">public.event_attribute</text>
<text text-anchor="start" x="680.743" y="-145.3" font-family="Arial" font-size="14.00" fill="#000000">    </text>
<text text-anchor="start" x="714.9478" y="-145.3" font-family="Arial" font-size="14.00" fill="#666666">[BASE TABLE]</text>
<polygon fill="none" stroke="#000000" points="503,-102.5 503,-132.5 815,-132.5 815,-102.5 503,-102.5"/>
<text text-anchor="start" x="510" y="-113.9" font-family="Arial" font-size="14.00" fill="#000000">event_attribute_id    </text>
<text text-anchor="start" x="655.467" y="-113.9" font-family="Arial" font-size="14.00" fill="#666666">[integer]</text>
<polygon fill="none" stroke="#000000" points="503,-72.5 503,-102.5 815,-102.5 815,-72.5 503,-72.5"/>
<text text-anchor="start" x="510" y="-83.9" font-family="Arial" font-size="14.00" fill="#000000">event_type_id    </text>
<text text-anchor="start" x="631.3534" y="-83.9" font-family="Arial" font-size="14.00" fill="#666666">[integer]</text>
<polygon fill="none" stroke="#000000" points="503,-42.5 503,-72.5 815,-72.5 815,-42.5 503,-42.5"/>
<text text-anchor="start" x="510" y="-53.9" font-family="Arial" font-size="14.00" fill="#000000">name    </text>
<text text-anchor="start" x="579.2132" y="-53.9" font-family="Arial" font-size="14.00" fill="#666666">[varchar(255)]</text>
</g>
<!-- public.event_attribute_value&#45;&gt;public.event_attribute -->
<g id="edge2" class="edge">
<title>public.event_attribute_value:event_attribute_id&#45;&gt;public.event_attribute:event_attribute_id</title>
<path fill="none" stroke="#000000" d="M647.2266,-335.9034C674.0634,-326.3126 659.085,-275.8015 637,-247 599.4754,-198.0636 540.5246,-259.9364 503,-211 477.7135,-178.0234 461.4444,-117.5 503,-117.5"/>
<polygon fill="#000000" stroke="#000000" points="646.8803,-335.9573 636.3058,-333.0539 641.9402,-336.7287 637,-337.5 637,-337.5 637,-337.5 641.9402,-336.7287 637.6942,-341.9461 646.8803,-335.9573 646.8803,-335.9573"/>
<text text-anchor="start" x="644.298" y="-347.5" font-family="Arial" font-size="10.00" fill="#000000">FOREIGN KEY (event_attribute_id) REFERENCES event_attribute(event_attribute_id)</text>
</g>
</g>
</svg>
