<?xml version="1.0" encoding="UTF-8" standalone="no"?>
<!DOCTYPE svg PUBLIC "-//W3C//DTD SVG 1.1//EN"
 "http://www.w3.org/Graphics/SVG/1.1/DTD/svg11.dtd">
<!-- Generated by graphviz version 2.40.1 (20161225.0304)
 -->
<!-- Title: public.qualifier Pages: 1 -->
<svg width="938pt" height="472pt"
 viewBox="0.00 0.00 938.00 472.00" xmlns="http://www.w3.org/2000/svg" xmlns:xlink="http://www.w3.org/1999/xlink">
<g id="graph0" class="graph" transform="scale(1 1) rotate(0) translate(4 468)">
<title>public.qualifier</title>
<polygon fill="#ffffff" stroke="transparent" points="-4,4 -4,-468 934,-468 934,4 -4,4"/>
<!-- public.qualifier -->
<g id="node1" class="node">
<title>public.qualifier</title>
<polygon fill="#efefef" stroke="transparent" points="351.5,-105.5 351.5,-140.5 607.5,-140.5 607.5,-105.5 351.5,-105.5"/>
<polygon fill="none" stroke="#000000" points="351.5,-105.5 351.5,-140.5 607.5,-140.5 607.5,-105.5 351.5,-105.5"/>
<text text-anchor="start" x="358.2105" y="-118.3" font-family="Arial Bold" font-size="18.00" fill="#000000">public.qualifier</text>
<text text-anchor="start" x="473.2215" y="-118.3" font-family="Arial" font-size="14.00" fill="#000000">    </text>
<text text-anchor="start" x="507.4263" y="-118.3" font-family="Arial" font-size="14.00" fill="#666666">[BASE TABLE]</text>
<polygon fill="none" stroke="#000000" points="351.5,-75.5 351.5,-105.5 607.5,-105.5 607.5,-75.5 351.5,-75.5"/>
<text text-anchor="start" x="358.5" y="-86.9" font-family="Arial" font-size="14.00" fill="#000000">qualifier_id </text>
<text text-anchor="start" x="430.0638" y="-86.9" font-family="Arial" font-size="14.00" fill="#666666">[integer]</text>
<polygon fill="none" stroke="#000000" points="351.5,-45.5 351.5,-75.5 607.5,-75.5 607.5,-45.5 351.5,-45.5"/>
<text text-anchor="start" x="358.5" y="-56.9" font-family="Arial" font-size="14.00" fill="#000000">value </text>
<text text-anchor="start" x="395.845" y="-56.9" font-family="Arial" font-size="14.00" fill="#666666">[json]</text>
<polygon fill="none" stroke="#000000" stroke-width="3" points="350,-44.5 350,-142.5 609,-142.5 609,-44.5 350,-44.5"/>
</g>
<!-- public.event_object_relationship -->
<g id="node2" class="node">
<title>public.event_object_relationship</title>
<polygon fill="#efefef" stroke="transparent" points="43.5,-385.5 43.5,-420.5 440.5,-420.5 440.5,-385.5 43.5,-385.5"/>
<polygon fill="none" stroke="#000000" points="43.5,-385.5 43.5,-420.5 440.5,-420.5 440.5,-385.5 43.5,-385.5"/>
<text text-anchor="start" x="50.1802" y="-398.3" font-family="Arial Bold" font-size="18.00" fill="#000000">public.event_object_relationship</text>
<text text-anchor="start" x="306.2518" y="-398.3" font-family="Arial" font-size="14.00" fill="#000000">    </text>
<text text-anchor="start" x="340.4566" y="-398.3" font-family="Arial" font-size="14.00" fill="#666666">[BASE TABLE]</text>
<polygon fill="none" stroke="#000000" points="43.5,-355.5 43.5,-385.5 440.5,-385.5 440.5,-355.5 43.5,-355.5"/>
<text text-anchor="start" x="50.5" y="-366.9" font-family="Arial" font-size="14.00" fill="#000000">event_object_relationship_id    </text>
<text text-anchor="start" x="262.0918" y="-366.9" font-family="Arial" font-size="14.00" fill="#666666">[integer]</text>
<polygon fill="none" stroke="#000000" points="43.5,-325.5 43.5,-355.5 440.5,-355.5 440.5,-325.5 43.5,-325.5"/>
<text text-anchor="start" x="50.5" y="-336.9" font-family="Arial" font-size="14.00" fill="#000000">event_id    </text>
<text text-anchor="start" x="137.615" y="-336.9" font-family="Arial" font-size="14.00" fill="#666666">[integer]</text>
<polygon fill="none" stroke="#000000" points="43.5,-295.5 43.5,-325.5 440.5,-325.5 440.5,-295.5 43.5,-295.5"/>
<text text-anchor="start" x="50.5" y="-306.9" font-family="Arial" font-size="14.00" fill="#000000">object_id    </text>
<text text-anchor="start" x="140.7216" y="-306.9" font-family="Arial" font-size="14.00" fill="#666666">[integer]</text>
<polygon fill="none" stroke="#000000" points="43.5,-265.5 43.5,-295.5 440.5,-295.5 440.5,-265.5 43.5,-265.5"/>
<text text-anchor="start" x="50.5" y="-276.9" font-family="Arial" font-size="14.00" fill="#000000">qualifier_id    </text>
<text text-anchor="start" x="152.378" y="-276.9" font-family="Arial" font-size="14.00" fill="#666666">[integer]</text>
</g>
<!-- public.event_object_relationship&#45;&gt;public.qualifier -->
<g id="edge1" class="edge">
<title>public.event_object_relationship:qualifier_id&#45;&gt;public.qualifier:qualifier_id</title>
<path fill="none" stroke="#000000" d="M450.2538,-277.7951C462.2766,-268.9926 452.4424,-240.713 440.5,-223 416.6469,-187.621 375.3531,-222.379 351.5,-187 327.524,-151.4387 308.6111,-90.5 351.5,-90.5"/>
<polygon fill="#000000" stroke="#000000" points="450.1363,-277.8276 439.2974,-276.1637 445.3182,-279.1638 440.5,-280.5 440.5,-280.5 440.5,-280.5 445.3182,-279.1638 441.7026,-284.8363 450.1363,-277.8276 450.1363,-277.8276"/>
<text text-anchor="start" x="447.5005" y="-290.5" font-family="Arial" font-size="10.00" fill="#000000">FOREIGN KEY (qualifier_id) REFERENCES qualifier(qualifier_id)</text>
</g>
<!-- public.object_relationship -->
<g id="node3" class="node">
<title>public.object_relationship</title>
<polygon fill="#efefef" stroke="transparent" points="544.5,-385.5 544.5,-420.5 887.5,-420.5 887.5,-385.5 544.5,-385.5"/>
<polygon fill="none" stroke="#000000" points="544.5,-385.5 544.5,-420.5 887.5,-420.5 887.5,-385.5 544.5,-385.5"/>
<text text-anchor="start" x="551.1937" y="-398.3" font-family="Arial Bold" font-size="18.00" fill="#000000">public.object_relationship</text>
<text text-anchor="start" x="753.2383" y="-398.3" font-family="Arial" font-size="14.00" fill="#000000">    </text>
<text text-anchor="start" x="787.4431" y="-398.3" font-family="Arial" font-size="14.00" fill="#666666">[BASE TABLE]</text>
<polygon fill="none" stroke="#000000" points="544.5,-355.5 544.5,-385.5 887.5,-385.5 887.5,-355.5 544.5,-355.5"/>
<text text-anchor="start" x="551.5" y="-366.9" font-family="Arial" font-size="14.00" fill="#000000">object_relationship_id    </text>
<text text-anchor="start" x="721.0708" y="-366.9" font-family="Arial" font-size="14.00" fill="#666666">[integer]</text>
<polygon fill="none" stroke="#000000" points="544.5,-325.5 544.5,-355.5 887.5,-355.5 887.5,-325.5 544.5,-325.5"/>
<text text-anchor="start" x="551.5" y="-336.9" font-family="Arial" font-size="14.00" fill="#000000">object_parent_id    </text>
<text text-anchor="start" x="689.1858" y="-336.9" font-family="Arial" font-size="14.00" fill="#666666">[integer]</text>
<polygon fill="none" stroke="#000000" points="544.5,-295.5 544.5,-325.5 887.5,-325.5 887.5,-295.5 544.5,-295.5"/>
<text text-anchor="start" x="551.5" y="-306.9" font-family="Arial" font-size="14.00" fill="#000000">object_child_id    </text>
<text text-anchor="start" x="678.2826" y="-306.9" font-family="Arial" font-size="14.00" fill="#666666">[integer]</text>
<polygon fill="none" stroke="#000000" points="544.5,-265.5 544.5,-295.5 887.5,-295.5 887.5,-265.5 544.5,-265.5"/>
<text text-anchor="start" x="551.5" y="-276.9" font-family="Arial" font-size="14.00" fill="#000000">qualifier_id    </text>
<text text-anchor="start" x="653.378" y="-276.9" font-family="Arial" font-size="14.00" fill="#666666">[integer]</text>
</g>
<!-- public.object_relationship&#45;&gt;public.qualifier -->
<g id="edge2" class="edge">
<title>public.object_relationship:qualifier_id&#45;&gt;public.qualifier:qualifier_id</title>
<path fill="none" stroke="#000000" d="M534.8447,-277.8567C523.1236,-269.2433 533.7774,-241.4769 544.5,-223 560.6867,-195.1075 591.3133,-214.8925 607.5,-187 629.0271,-149.905 650.3889,-90.5 607.5,-90.5"/>
<polygon fill="#000000" stroke="#000000" points="534.8549,-277.8595 543.3118,-284.8403 539.6774,-279.1797 544.5,-280.5 544.5,-280.5 544.5,-280.5 539.6774,-279.1797 545.6882,-276.1597 534.8549,-277.8595 534.8549,-277.8595"/>
<text text-anchor="start" x="551.5005" y="-264.5" font-family="Arial" font-size="10.00" fill="#000000">FOREIGN KEY (qualifier_id) REFERENCES qualifier(qualifier_id)</text>
</g>
</g>
</svg>
