<?xml version="1.0" encoding="UTF-8" standalone="no"?>
<!DOCTYPE svg PUBLIC "-//W3C//DTD SVG 1.1//EN"
 "http://www.w3.org/Graphics/SVG/1.1/DTD/svg11.dtd">
<!-- Generated by graphviz version 2.40.1 (20161225.0304)
 -->
<!-- Title: ocelv2 Pages: 1 -->
<svg width="2287pt" height="743pt"
 viewBox="0.00 0.00 2286.50 743.00" xmlns="http://www.w3.org/2000/svg" xmlns:xlink="http://www.w3.org/1999/xlink">
<g id="graph0" class="graph" transform="scale(1 1) rotate(0) translate(4 739)">
<title>ocelv2</title>
<polygon fill="#ffffff" stroke="transparent" points="-4,4 -4,-739 2282.5,-739 2282.5,4 -4,4"/>
<!-- public.event -->
<g id="node1" class="node">
<title>public.event</title>
<polygon fill="#efefef" stroke="transparent" points="729,-349.5 729,-384.5 1026,-384.5 1026,-349.5 729,-349.5"/>
<polygon fill="none" stroke="#000000" points="729,-349.5 729,-384.5 1026,-384.5 1026,-349.5 729,-349.5"/>
<text text-anchor="start" x="765.701" y="-362.3" font-family="Arial Bold" font-size="18.00" fill="#000000">public.event</text>
<text text-anchor="start" x="861.731" y="-362.3" font-family="Arial" font-size="14.00" fill="#000000">    </text>
<text text-anchor="start" x="895.9358" y="-362.3" font-family="Arial" font-size="14.00" fill="#666666">[BASE TABLE]</text>
<polygon fill="none" stroke="#000000" points="729,-319.5 729,-349.5 1026,-349.5 1026,-319.5 729,-319.5"/>
<text text-anchor="start" x="736" y="-330.9" font-family="Arial" font-size="14.00" fill="#000000">event_id    </text>
<text text-anchor="start" x="823.115" y="-330.9" font-family="Arial" font-size="14.00" fill="#666666">[integer]</text>
<polygon fill="none" stroke="#000000" points="729,-289.5 729,-319.5 1026,-319.5 1026,-289.5 729,-289.5"/>
<text text-anchor="start" x="736" y="-300.9" font-family="Arial" font-size="14.00" fill="#000000">event_type_id    </text>
<text text-anchor="start" x="857.3534" y="-300.9" font-family="Arial" font-size="14.00" fill="#666666">[integer]</text>
<polygon fill="none" stroke="#000000" points="729,-259.5 729,-289.5 1026,-289.5 1026,-259.5 729,-259.5"/>
<text text-anchor="start" x="735.5491" y="-270.9" font-family="Arial" font-size="14.00" fill="#000000">timestamp    </text>
<text text-anchor="start" x="834.3107" y="-270.9" font-family="Arial" font-size="14.00" fill="#666666">[timestamp without time zone]</text>
</g>
<!-- public.event_type -->
<g id="node5" class="node">
<title>public.event_type</title>
<polygon fill="#efefef" stroke="transparent" points="532,-102.5 532,-137.5 813,-137.5 813,-102.5 532,-102.5"/>
<polygon fill="none" stroke="#000000" points="532,-102.5 532,-137.5 813,-137.5 813,-102.5 532,-102.5"/>
<text text-anchor="start" x="538.6906" y="-115.3" font-family="Arial Bold" font-size="18.00" fill="#000000">public.event_type</text>
<text text-anchor="start" x="678.7414" y="-115.3" font-family="Arial" font-size="14.00" fill="#000000">    </text>
<text text-anchor="start" x="712.9462" y="-115.3" font-family="Arial" font-size="14.00" fill="#666666">[BASE TABLE]</text>
<polygon fill="none" stroke="#000000" points="532,-72.5 532,-102.5 813,-102.5 813,-72.5 532,-72.5"/>
<text text-anchor="start" x="539" y="-83.9" font-family="Arial" font-size="14.00" fill="#000000">event_type_id    </text>
<text text-anchor="start" x="660.3534" y="-83.9" font-family="Arial" font-size="14.00" fill="#666666">[integer]</text>
<polygon fill="none" stroke="#000000" points="532,-42.5 532,-72.5 813,-72.5 813,-42.5 532,-42.5"/>
<text text-anchor="start" x="539" y="-53.9" font-family="Arial" font-size="14.00" fill="#000000">name    </text>
<text text-anchor="start" x="608.2132" y="-53.9" font-family="Arial" font-size="14.00" fill="#666666">[varchar(255)]</text>
</g>
<!-- public.event&#45;&gt;public.event_type -->
<g id="edge1" class="edge">
<title>public.event:event_type_id&#45;&gt;public.event_type:event_type_id</title>
<path fill="none" stroke="#000000" d="M718.8405,-302.8783C693.7024,-293.554 709.7663,-246.1687 729,-217 751.3595,-183.0909 790.6405,-214.9091 813,-181 835.876,-146.3077 854.5556,-87.5 813,-87.5"/>
<polygon fill="#000000" stroke="#000000" points="719.125,-302.9236 728.2906,-308.9437 724.0625,-303.7118 729,-304.5 729,-304.5 729,-304.5 724.0625,-303.7118 729.7094,-300.0563 719.125,-302.9236 719.125,-302.9236"/>
<text text-anchor="start" x="736.134" y="-314.5" font-family="Arial" font-size="10.00" fill="#000000">FOREIGN KEY (event_type_id) REFERENCES event_type(event_type_id)</text>
</g>
<!-- public.event_attribute -->
<g id="node2" class="node">
<title>public.event_attribute</title>
<polygon fill="#efefef" stroke="transparent" points="312,-349.5 312,-384.5 624,-384.5 624,-349.5 312,-349.5"/>
<polygon fill="none" stroke="#000000" points="312,-349.5 312,-384.5 624,-384.5 624,-349.5 312,-349.5"/>
<text text-anchor="start" x="318.689" y="-362.3" font-family="Arial Bold" font-size="18.00" fill="#000000">public.event_attribute</text>
<text text-anchor="start" x="489.743" y="-362.3" font-family="Arial" font-size="14.00" fill="#000000">    </text>
<text text-anchor="start" x="523.9478" y="-362.3" font-family="Arial" font-size="14.00" fill="#666666">[BASE TABLE]</text>
<polygon fill="none" stroke="#000000" points="312,-319.5 312,-349.5 624,-349.5 624,-319.5 312,-319.5"/>
<text text-anchor="start" x="319" y="-330.9" font-family="Arial" font-size="14.00" fill="#000000">event_attribute_id    </text>
<text text-anchor="start" x="464.467" y="-330.9" font-family="Arial" font-size="14.00" fill="#666666">[integer]</text>
<polygon fill="none" stroke="#000000" points="312,-289.5 312,-319.5 624,-319.5 624,-289.5 312,-289.5"/>
<text text-anchor="start" x="319" y="-300.9" font-family="Arial" font-size="14.00" fill="#000000">event_type_id    </text>
<text text-anchor="start" x="440.3534" y="-300.9" font-family="Arial" font-size="14.00" fill="#666666">[integer]</text>
<polygon fill="none" stroke="#000000" points="312,-259.5 312,-289.5 624,-289.5 624,-259.5 312,-259.5"/>
<text text-anchor="start" x="319" y="-270.9" font-family="Arial" font-size="14.00" fill="#000000">name    </text>
<text text-anchor="start" x="388.2132" y="-270.9" font-family="Arial" font-size="14.00" fill="#666666">[varchar(255)]</text>
</g>
<!-- public.event_attribute&#45;&gt;public.event_type -->
<g id="edge2" class="edge">
<title>public.event_attribute:event_type_id&#45;&gt;public.event_type:event_type_id</title>
<path fill="none" stroke="#000000" d="M634.1739,-302.8687C659.3916,-293.4909 643.6966,-245.8582 624,-217 599.2475,-180.7341 556.7525,-217.2659 532,-181 508.5736,-146.677 490.4444,-87.5 532,-87.5"/>
<polygon fill="#000000" stroke="#000000" points="633.8739,-302.9167 623.2875,-300.0568 628.9369,-303.7083 624,-304.5 624,-304.5 624,-304.5 628.9369,-303.7083 624.7125,-308.9432 633.8739,-302.9167 633.8739,-302.9167"/>
<text text-anchor="start" x="286.134" y="-314.5" font-family="Arial" font-size="10.00" fill="#000000">FOREIGN KEY (event_type_id) REFERENCES event_type(event_type_id)</text>
</g>
<!-- public.event_attribute_value -->
<g id="node3" class="node">
<title>public.event_attribute_value</title>
<polygon fill="#efefef" stroke="transparent" points="397,-641.5 397,-676.5 762,-676.5 762,-641.5 397,-641.5"/>
<polygon fill="none" stroke="#000000" points="397,-641.5 397,-676.5 762,-676.5 762,-641.5 397,-641.5"/>
<text text-anchor="start" x="403.6795" y="-654.3" font-family="Arial Bold" font-size="18.00" fill="#000000">public.event_attribute_value</text>
<text text-anchor="start" x="627.7525" y="-654.3" font-family="Arial" font-size="14.00" fill="#000000">    </text>
<text text-anchor="start" x="661.9573" y="-654.3" font-family="Arial" font-size="14.00" fill="#666666">[BASE TABLE]</text>
<polygon fill="none" stroke="#000000" points="397,-611.5 397,-641.5 762,-641.5 762,-611.5 397,-611.5"/>
<text text-anchor="start" x="404" y="-622.9" font-family="Arial" font-size="14.00" fill="#000000">event_attribute_value_id    </text>
<text text-anchor="start" x="590.704" y="-622.9" font-family="Arial" font-size="14.00" fill="#666666">[integer]</text>
<polygon fill="none" stroke="#000000" points="397,-581.5 397,-611.5 762,-611.5 762,-581.5 397,-581.5"/>
<text text-anchor="start" x="404" y="-592.9" font-family="Arial" font-size="14.00" fill="#000000">event_id    </text>
<text text-anchor="start" x="491.115" y="-592.9" font-family="Arial" font-size="14.00" fill="#666666">[integer]</text>
<polygon fill="none" stroke="#000000" points="397,-551.5 397,-581.5 762,-581.5 762,-551.5 397,-551.5"/>
<text text-anchor="start" x="404" y="-562.9" font-family="Arial" font-size="14.00" fill="#000000">event_attribute_id    </text>
<text text-anchor="start" x="549.467" y="-562.9" font-family="Arial" font-size="14.00" fill="#666666">[integer]</text>
<polygon fill="none" stroke="#000000" points="397,-521.5 397,-551.5 762,-551.5 762,-521.5 397,-521.5"/>
<text text-anchor="start" x="404" y="-532.9" font-family="Arial" font-size="14.00" fill="#000000">value    </text>
<text text-anchor="start" x="471.6592" y="-532.9" font-family="Arial" font-size="14.00" fill="#666666">[json]</text>
</g>
<!-- public.event_attribute_value&#45;&gt;public.event -->
<g id="edge4" class="edge">
<title>public.event_attribute_value:event_id&#45;&gt;public.event:event_id</title>
<path fill="none" stroke="#000000" d="M772.192,-595.4206C808.7907,-586.5884 775.6928,-525.3668 762,-479 754.3536,-453.1075 736.6464,-453.8925 729,-428 717.2305,-388.146 687.4444,-334.5 729,-334.5"/>
<polygon fill="#000000" stroke="#000000" points="771.9444,-595.4467 761.526,-592.025 766.9722,-595.9734 762,-596.5 762,-596.5 762,-596.5 766.9722,-595.9734 762.474,-600.975 771.9444,-595.4467 771.9444,-595.4467"/>
<text text-anchor="start" x="700.818" y="-580.5" font-family="Arial" font-size="10.00" fill="#000000">FOREIGN KEY (event_id) REFERENCES event(event_id)</text>
</g>
<!-- public.event_attribute_value&#45;&gt;public.event_attribute -->
<g id="edge3" class="edge">
<title>public.event_attribute_value:event_attribute_id&#45;&gt;public.event_attribute:event_attribute_id</title>
<path fill="none" stroke="#000000" d="M387.0961,-564.9435C361.0534,-555.5958 375.0744,-506.3981 397,-479 461.6085,-398.2654 559.3915,-508.7346 624,-428 649.9647,-395.5546 665.5556,-334.5 624,-334.5"/>
<polygon fill="#000000" stroke="#000000" points="387.1213,-564.9473 396.3013,-570.9454 392.0606,-565.7237 397,-566.5 397,-566.5 397,-566.5 392.0606,-565.7237 397.6987,-562.0546 387.1213,-564.9473 387.1213,-564.9473"/>
<text text-anchor="start" x="7.298" y="-576.5" font-family="Arial" font-size="10.00" fill="#000000">FOREIGN KEY (event_attribute_id) REFERENCES event_attribute(event_attribute_id)</text>
</g>
<!-- public.event_object_relationship -->
<g id="node4" class="node">
<title>public.event_object_relationship</title>
<polygon fill="#efefef" stroke="transparent" points="919,-641.5 919,-676.5 1316,-676.5 1316,-641.5 919,-641.5"/>
<polygon fill="none" stroke="#000000" points="919,-641.5 919,-676.5 1316,-676.5 1316,-641.5 919,-641.5"/>
<text text-anchor="start" x="925.6802" y="-654.3" font-family="Arial Bold" font-size="18.00" fill="#000000">public.event_object_relationship</text>
<text text-anchor="start" x="1181.7518" y="-654.3" font-family="Arial" font-size="14.00" fill="#000000">    </text>
<text text-anchor="start" x="1215.9566" y="-654.3" font-family="Arial" font-size="14.00" fill="#666666">[BASE TABLE]</text>
<polygon fill="none" stroke="#000000" points="919,-611.5 919,-641.5 1316,-641.5 1316,-611.5 919,-611.5"/>
<text text-anchor="start" x="926" y="-622.9" font-family="Arial" font-size="14.00" fill="#000000">event_object_relationship_id    </text>
<text text-anchor="start" x="1137.5918" y="-622.9" font-family="Arial" font-size="14.00" fill="#666666">[integer]</text>
<polygon fill="none" stroke="#000000" points="919,-581.5 919,-611.5 1316,-611.5 1316,-581.5 919,-581.5"/>
<text text-anchor="start" x="926" y="-592.9" font-family="Arial" font-size="14.00" fill="#000000">event_id    </text>
<text text-anchor="start" x="1013.115" y="-592.9" font-family="Arial" font-size="14.00" fill="#666666">[integer]</text>
<polygon fill="none" stroke="#000000" points="919,-551.5 919,-581.5 1316,-581.5 1316,-551.5 919,-551.5"/>
<text text-anchor="start" x="926" y="-562.9" font-family="Arial" font-size="14.00" fill="#000000">object_id    </text>
<text text-anchor="start" x="1016.2216" y="-562.9" font-family="Arial" font-size="14.00" fill="#666666">[integer]</text>
<polygon fill="none" stroke="#000000" points="919,-521.5 919,-551.5 1316,-551.5 1316,-521.5 919,-521.5"/>
<text text-anchor="start" x="926" y="-532.9" font-family="Arial" font-size="14.00" fill="#000000">qualifier_id    </text>
<text text-anchor="start" x="1027.878" y="-532.9" font-family="Arial" font-size="14.00" fill="#666666">[integer]</text>
</g>
<!-- public.event_object_relationship&#45;&gt;public.event -->
<g id="edge5" class="edge">
<title>public.event_object_relationship:event_id&#45;&gt;public.event:event_id</title>
<path fill="none" stroke="#000000" d="M908.6079,-595.33C870.4116,-585.7746 893.196,-519.8843 919,-479 947.1176,-434.4499 997.8824,-472.5501 1026,-428 1048.1795,-392.8584 1067.5556,-334.5 1026,-334.5"/>
<polygon fill="#000000" stroke="#000000" points="909.0628,-595.3811 918.4965,-600.9717 914.0314,-595.9406 919,-596.5 919,-596.5 919,-596.5 914.0314,-595.9406 919.5035,-592.0283 909.0628,-595.3811 909.0628,-595.3811"/>
<text text-anchor="start" x="653.818" y="-606.5" font-family="Arial" font-size="10.00" fill="#000000">FOREIGN KEY (event_id) REFERENCES event(event_id)</text>
</g>
<!-- public.object -->
<g id="node6" class="node">
<title>public.object</title>
<polygon fill="#efefef" stroke="transparent" points="1491,-334.5 1491,-369.5 1732,-369.5 1732,-334.5 1491,-334.5"/>
<polygon fill="none" stroke="#000000" points="1491,-334.5 1491,-369.5 1732,-369.5 1732,-334.5 1491,-334.5"/>
<text text-anchor="start" x="1497.7039" y="-347.3" font-family="Arial Bold" font-size="18.00" fill="#000000">public.object</text>
<text text-anchor="start" x="1597.7281" y="-347.3" font-family="Arial" font-size="14.00" fill="#000000">    </text>
<text text-anchor="start" x="1631.9329" y="-347.3" font-family="Arial" font-size="14.00" fill="#666666">[BASE TABLE]</text>
<polygon fill="none" stroke="#000000" points="1491,-304.5 1491,-334.5 1732,-334.5 1732,-304.5 1491,-304.5"/>
<text text-anchor="start" x="1498" y="-315.9" font-family="Arial" font-size="14.00" fill="#000000">object_id    </text>
<text text-anchor="start" x="1588.2216" y="-315.9" font-family="Arial" font-size="14.00" fill="#666666">[integer]</text>
<polygon fill="none" stroke="#000000" points="1491,-274.5 1491,-304.5 1732,-304.5 1732,-274.5 1491,-274.5"/>
<text text-anchor="start" x="1498" y="-285.9" font-family="Arial" font-size="14.00" fill="#000000">object_type_id    </text>
<text text-anchor="start" x="1622.46" y="-285.9" font-family="Arial" font-size="14.00" fill="#666666">[integer]</text>
</g>
<!-- public.event_object_relationship&#45;&gt;public.object -->
<g id="edge6" class="edge">
<title>public.event_object_relationship:object_id&#45;&gt;public.object:object_id</title>
<path fill="none" stroke="#000000" d="M1325.9629,-565.4425C1361.9742,-556.8128 1333.8169,-497.4352 1367,-464 1391.9226,-438.888 1413.1693,-453.2029 1438,-428 1475.6656,-389.7698 1437.3321,-319.5 1491,-319.5"/>
<polygon fill="#000000" stroke="#000000" points="1325.9441,-565.4444 1315.525,-562.0251 1320.9721,-565.9722 1316,-566.5 1316,-566.5 1316,-566.5 1320.9721,-565.9722 1316.475,-570.9749 1325.9441,-565.4444 1325.9441,-565.4444"/>
<text text-anchor="start" x="1323.4895" y="-576.5" font-family="Arial" font-size="10.00" fill="#000000">FOREIGN KEY (object_id) REFERENCES object(object_id)</text>
</g>
<!-- public.qualifier -->
<g id="node11" class="node">
<title>public.qualifier</title>
<polygon fill="#efefef" stroke="transparent" points="1130,-334.5 1130,-369.5 1386,-369.5 1386,-334.5 1130,-334.5"/>
<polygon fill="none" stroke="#000000" points="1130,-334.5 1130,-369.5 1386,-369.5 1386,-334.5 1130,-334.5"/>
<text text-anchor="start" x="1136.7105" y="-347.3" font-family="Arial Bold" font-size="18.00" fill="#000000">public.qualifier</text>
<text text-anchor="start" x="1251.7215" y="-347.3" font-family="Arial" font-size="14.00" fill="#000000">    </text>
<text text-anchor="start" x="1285.9263" y="-347.3" font-family="Arial" font-size="14.00" fill="#666666">[BASE TABLE]</text>
<polygon fill="none" stroke="#000000" points="1130,-304.5 1130,-334.5 1386,-334.5 1386,-304.5 1130,-304.5"/>
<text text-anchor="start" x="1137" y="-315.9" font-family="Arial" font-size="14.00" fill="#000000">qualifier_id    </text>
<text text-anchor="start" x="1238.878" y="-315.9" font-family="Arial" font-size="14.00" fill="#666666">[integer]</text>
<polygon fill="none" stroke="#000000" points="1130,-274.5 1130,-304.5 1386,-304.5 1386,-274.5 1130,-274.5"/>
<text text-anchor="start" x="1137" y="-285.9" font-family="Arial" font-size="14.00" fill="#000000">value    </text>
<text text-anchor="start" x="1204.6592" y="-285.9" font-family="Arial" font-size="14.00" fill="#666666">[json]</text>
</g>
<!-- public.event_object_relationship&#45;&gt;public.qualifier -->
<g id="edge7" class="edge">
<title>public.event_object_relationship:qualifier_id&#45;&gt;public.qualifier:qualifier_id</title>
<path fill="none" stroke="#000000" d="M1325.7846,-533.7738C1337.9018,-524.9062 1328.3239,-496.4497 1316,-479 1265.3976,-407.3507 1180.6024,-484.6493 1130,-413 1106.0273,-379.0563 1088.4444,-319.5 1130,-319.5"/>
<polygon fill="#000000" stroke="#000000" points="1325.6331,-533.816 1314.7922,-532.1651 1320.8165,-535.158 1316,-536.5 1316,-536.5 1316,-536.5 1320.8165,-535.158 1317.2078,-540.8349 1325.6331,-533.816 1325.6331,-533.816"/>
<text text-anchor="start" x="1323.0005" y="-546.5" font-family="Arial" font-size="10.00" fill="#000000">FOREIGN KEY (qualifier_id) REFERENCES qualifier(qualifier_id)</text>
</g>
<!-- public.object_type -->
<g id="node10" class="node">
<title>public.object_type</title>
<polygon fill="#efefef" stroke="transparent" points="1679,-102.5 1679,-137.5 1964,-137.5 1964,-102.5 1679,-102.5"/>
<polygon fill="none" stroke="#000000" points="1679,-102.5 1679,-137.5 1964,-137.5 1964,-102.5 1679,-102.5"/>
<text text-anchor="start" x="1685.6935" y="-115.3" font-family="Arial Bold" font-size="18.00" fill="#000000">public.object_type</text>
<text text-anchor="start" x="1829.7385" y="-115.3" font-family="Arial" font-size="14.00" fill="#000000">    </text>
<text text-anchor="start" x="1863.9433" y="-115.3" font-family="Arial" font-size="14.00" fill="#666666">[BASE TABLE]</text>
<polygon fill="none" stroke="#000000" points="1679,-72.5 1679,-102.5 1964,-102.5 1964,-72.5 1679,-72.5"/>
<text text-anchor="start" x="1686" y="-83.9" font-family="Arial" font-size="14.00" fill="#000000">object_type_id    </text>
<text text-anchor="start" x="1810.46" y="-83.9" font-family="Arial" font-size="14.00" fill="#666666">[integer]</text>
<polygon fill="none" stroke="#000000" points="1679,-42.5 1679,-72.5 1964,-72.5 1964,-42.5 1679,-42.5"/>
<text text-anchor="start" x="1686" y="-53.9" font-family="Arial" font-size="14.00" fill="#000000">name    </text>
<text text-anchor="start" x="1755.2132" y="-53.9" font-family="Arial" font-size="14.00" fill="#666666">[varchar(255)]</text>
</g>
<!-- public.object&#45;&gt;public.object_type -->
<g id="edge8" class="edge">
<title>public.object:object_type_id&#45;&gt;public.object_type:object_type_id</title>
<path fill="none" stroke="#000000" d="M1741.7711,-286.7139C1752.3742,-278.127 1740.2864,-251.4735 1732,-232 1719.2003,-201.92 1691.7997,-211.08 1679,-181 1662.729,-142.7623 1637.4444,-87.5 1679,-87.5"/>
<polygon fill="#000000" stroke="#000000" points="1741.6167,-286.7578 1730.766,-285.1725 1736.8084,-288.1289 1732,-289.5 1732,-289.5 1732,-289.5 1736.8084,-288.1289 1733.234,-293.8275 1741.6167,-286.7578 1741.6167,-286.7578"/>
<text text-anchor="start" x="1562.8055" y="-273.5" font-family="Arial" font-size="10.00" fill="#000000">FOREIGN KEY (object_type_id) REFERENCES object_type(object_type_id)</text>
</g>
<!-- public.object_attribute -->
<g id="node7" class="node">
<title>public.object_attribute</title>
<polygon fill="#efefef" stroke="transparent" points="1875,-349.5 1875,-384.5 2191,-384.5 2191,-349.5 1875,-349.5"/>
<polygon fill="none" stroke="#000000" points="1875,-349.5 1875,-384.5 2191,-384.5 2191,-349.5 1875,-349.5"/>
<text text-anchor="start" x="1881.6919" y="-362.3" font-family="Arial Bold" font-size="18.00" fill="#000000">public.object_attribute</text>
<text text-anchor="start" x="2056.7401" y="-362.3" font-family="Arial" font-size="14.00" fill="#000000">    </text>
<text text-anchor="start" x="2090.9449" y="-362.3" font-family="Arial" font-size="14.00" fill="#666666">[BASE TABLE]</text>
<polygon fill="none" stroke="#000000" points="1875,-319.5 1875,-349.5 2191,-349.5 2191,-319.5 1875,-319.5"/>
<text text-anchor="start" x="1882" y="-330.9" font-family="Arial" font-size="14.00" fill="#000000">object_attribute_id    </text>
<text text-anchor="start" x="2030.5736" y="-330.9" font-family="Arial" font-size="14.00" fill="#666666">[integer]</text>
<polygon fill="none" stroke="#000000" points="1875,-289.5 1875,-319.5 2191,-319.5 2191,-289.5 1875,-289.5"/>
<text text-anchor="start" x="1882" y="-300.9" font-family="Arial" font-size="14.00" fill="#000000">object_type_id    </text>
<text text-anchor="start" x="2006.46" y="-300.9" font-family="Arial" font-size="14.00" fill="#666666">[integer]</text>
<polygon fill="none" stroke="#000000" points="1875,-259.5 1875,-289.5 2191,-289.5 2191,-259.5 1875,-259.5"/>
<text text-anchor="start" x="1882" y="-270.9" font-family="Arial" font-size="14.00" fill="#000000">name    </text>
<text text-anchor="start" x="1951.2132" y="-270.9" font-family="Arial" font-size="14.00" fill="#666666">[varchar(255)]</text>
</g>
<!-- public.object_attribute&#45;&gt;public.object_type -->
<g id="edge9" class="edge">
<title>public.object_attribute:object_type_id&#45;&gt;public.object_type:object_type_id</title>
<path fill="none" stroke="#000000" d="M1864.8312,-302.8721C1839.6419,-293.5136 1855.4681,-245.9699 1875,-217 1898.8531,-181.621 1940.1469,-216.379 1964,-181 1987.2306,-146.5442 2005.5556,-87.5 1964,-87.5"/>
<polygon fill="#000000" stroke="#000000" points="1865.1257,-302.9192 1874.2886,-308.9434 1870.0629,-303.7096 1875,-304.5 1875,-304.5 1875,-304.5 1870.0629,-303.7096 1875.7114,-300.0566 1865.1257,-302.9192 1865.1257,-302.9192"/>
<text text-anchor="start" x="1529.8055" y="-314.5" font-family="Arial" font-size="10.00" fill="#000000">FOREIGN KEY (object_type_id) REFERENCES object_type(object_type_id)</text>
</g>
<!-- public.object_attribute_value -->
<g id="node8" class="node">
<title>public.object_attribute_value</title>
<polygon fill="#efefef" stroke="transparent" points="1867,-656.5 1867,-691.5 2236,-691.5 2236,-656.5 1867,-656.5"/>
<polygon fill="none" stroke="#000000" points="1867,-656.5 1867,-691.5 2236,-691.5 2236,-656.5 1867,-656.5"/>
<text text-anchor="start" x="1873.6824" y="-669.3" font-family="Arial Bold" font-size="18.00" fill="#000000">public.object_attribute_value</text>
<text text-anchor="start" x="2101.7496" y="-669.3" font-family="Arial" font-size="14.00" fill="#000000">    </text>
<text text-anchor="start" x="2135.9544" y="-669.3" font-family="Arial" font-size="14.00" fill="#666666">[BASE TABLE]</text>
<polygon fill="none" stroke="#000000" points="1867,-626.5 1867,-656.5 2236,-656.5 2236,-626.5 1867,-626.5"/>
<text text-anchor="start" x="1874" y="-637.9" font-family="Arial" font-size="14.00" fill="#000000">object_attribute_value_id    </text>
<text text-anchor="start" x="2063.8106" y="-637.9" font-family="Arial" font-size="14.00" fill="#666666">[integer]</text>
<polygon fill="none" stroke="#000000" points="1867,-596.5 1867,-626.5 2236,-626.5 2236,-596.5 1867,-596.5"/>
<text text-anchor="start" x="1874" y="-607.9" font-family="Arial" font-size="14.00" fill="#000000">object_id    </text>
<text text-anchor="start" x="1964.2216" y="-607.9" font-family="Arial" font-size="14.00" fill="#666666">[integer]</text>
<polygon fill="none" stroke="#000000" points="1867,-566.5 1867,-596.5 2236,-596.5 2236,-566.5 1867,-566.5"/>
<text text-anchor="start" x="1874" y="-577.9" font-family="Arial" font-size="14.00" fill="#000000">object_attribute_id    </text>
<text text-anchor="start" x="2022.5736" y="-577.9" font-family="Arial" font-size="14.00" fill="#666666">[integer]</text>
<polygon fill="none" stroke="#000000" points="1867,-536.5 1867,-566.5 2236,-566.5 2236,-536.5 1867,-536.5"/>
<text text-anchor="start" x="1874" y="-547.9" font-family="Arial" font-size="14.00" fill="#000000">timestamp    </text>
<text text-anchor="start" x="1972.7616" y="-547.9" font-family="Arial" font-size="14.00" fill="#666666">[timestamp without time zone]</text>
<polygon fill="none" stroke="#000000" points="1867,-506.5 1867,-536.5 2236,-536.5 2236,-506.5 1867,-506.5"/>
<text text-anchor="start" x="1874" y="-517.9" font-family="Arial" font-size="14.00" fill="#000000">value    </text>
<text text-anchor="start" x="1941.6592" y="-517.9" font-family="Arial" font-size="14.00" fill="#666666">[json]</text>
</g>
<!-- public.object_attribute_value&#45;&gt;public.object -->
<g id="edge11" class="edge">
<title>public.object_attribute_value:object_id&#45;&gt;public.object:object_id</title>
<path fill="none" stroke="#000000" d="M1856.943,-610.812C1802.1839,-602.6654 1842.4581,-523.8461 1815,-464 1784.1148,-396.6844 1806.0627,-319.5 1732,-319.5"/>
<polygon fill="#000000" stroke="#000000" points="1857.0233,-610.8174 1866.6928,-615.9895 1862.0117,-611.1587 1867,-611.5 1867,-611.5 1867,-611.5 1862.0117,-611.1587 1867.3072,-607.0105 1857.0233,-610.8174 1857.0233,-610.8174"/>
<text text-anchor="start" x="1595.4895" y="-621.5" font-family="Arial" font-size="10.00" fill="#000000">FOREIGN KEY (object_id) REFERENCES object(object_id)</text>
</g>
<!-- public.object_attribute_value&#45;&gt;public.object_attribute -->
<g id="edge10" class="edge">
<title>public.object_attribute_value:object_attribute_id&#45;&gt;public.object_attribute:object_attribute_id</title>
<path fill="none" stroke="#000000" d="M1856.9988,-580.3755C1817.31,-570.6447 1834.6207,-500.1762 1867,-464 1963.6277,-356.0413 2094.3723,-535.9587 2191,-428 2218.7143,-397.0358 2232.5556,-334.5 2191,-334.5"/>
<polygon fill="#000000" stroke="#000000" points="1857.0626,-580.3826 1866.4972,-585.9718 1862.0313,-580.9413 1867,-581.5 1867,-581.5 1867,-581.5 1862.0313,-580.9413 1867.5028,-577.0282 1857.0626,-580.3826 1857.0626,-580.3826"/>
<text text-anchor="start" x="1873.9695" y="-591.5" font-family="Arial" font-size="10.00" fill="#000000">FOREIGN KEY (object_attribute_id) REFERENCES object_attribute(object_attribute_id)</text>
</g>
<!-- public.object_relationship -->
<g id="node9" class="node">
<title>public.object_relationship</title>
<polygon fill="#efefef" stroke="transparent" points="1420,-641.5 1420,-676.5 1763,-676.5 1763,-641.5 1420,-641.5"/>
<polygon fill="none" stroke="#000000" points="1420,-641.5 1420,-676.5 1763,-676.5 1763,-641.5 1420,-641.5"/>
<text text-anchor="start" x="1426.6937" y="-654.3" font-family="Arial Bold" font-size="18.00" fill="#000000">public.object_relationship</text>
<text text-anchor="start" x="1628.7383" y="-654.3" font-family="Arial" font-size="14.00" fill="#000000">    </text>
<text text-anchor="start" x="1662.9431" y="-654.3" font-family="Arial" font-size="14.00" fill="#666666">[BASE TABLE]</text>
<polygon fill="none" stroke="#000000" points="1420,-611.5 1420,-641.5 1763,-641.5 1763,-611.5 1420,-611.5"/>
<text text-anchor="start" x="1427" y="-622.9" font-family="Arial" font-size="14.00" fill="#000000">object_relationship_id    </text>
<text text-anchor="start" x="1596.5708" y="-622.9" font-family="Arial" font-size="14.00" fill="#666666">[integer]</text>
<polygon fill="none" stroke="#000000" points="1420,-581.5 1420,-611.5 1763,-611.5 1763,-581.5 1420,-581.5"/>
<text text-anchor="start" x="1427" y="-592.9" font-family="Arial" font-size="14.00" fill="#000000">object_parent_id    </text>
<text text-anchor="start" x="1564.6858" y="-592.9" font-family="Arial" font-size="14.00" fill="#666666">[integer]</text>
<polygon fill="none" stroke="#000000" points="1420,-551.5 1420,-581.5 1763,-581.5 1763,-551.5 1420,-551.5"/>
<text text-anchor="start" x="1427" y="-562.9" font-family="Arial" font-size="14.00" fill="#000000">object_child_id    </text>
<text text-anchor="start" x="1553.7826" y="-562.9" font-family="Arial" font-size="14.00" fill="#666666">[integer]</text>
<polygon fill="none" stroke="#000000" points="1420,-521.5 1420,-551.5 1763,-551.5 1763,-521.5 1420,-521.5"/>
<text text-anchor="start" x="1427" y="-532.9" font-family="Arial" font-size="14.00" fill="#000000">qualifier_id    </text>
<text text-anchor="start" x="1528.878" y="-532.9" font-family="Arial" font-size="14.00" fill="#666666">[integer]</text>
</g>
<!-- public.object_relationship&#45;&gt;public.object -->
<g id="edge12" class="edge">
<title>public.object_relationship:object_child_id&#45;&gt;public.object:object_id</title>
<path fill="none" stroke="#000000" d="M1772.8972,-564.9488C1798.9009,-555.6321 1784.6913,-506.584 1763,-479 1686.1053,-381.2157 1567.8947,-510.7843 1491,-413 1465.3128,-380.3345 1449.4444,-319.5 1491,-319.5"/>
<polygon fill="#000000" stroke="#000000" points="1772.8794,-564.9515 1762.3032,-562.0543 1767.9397,-565.7257 1763,-566.5 1763,-566.5 1763,-566.5 1767.9397,-565.7257 1763.6968,-570.9457 1772.8794,-564.9515 1772.8794,-564.9515"/>
<text text-anchor="start" x="1694.182" y="-550.5" font-family="Arial" font-size="10.00" fill="#000000">FOREIGN KEY (object_child_id) REFERENCES object(object_id)</text>
</g>
<!-- public.object_relationship&#45;&gt;public.object -->
<g id="edge13" class="edge">
<title>public.object_relationship:object_parent_id&#45;&gt;public.object:object_id</title>
<path fill="none" stroke="#000000" d="M1772.9661,-595.405C1812.3569,-585.9243 1793.0109,-517.1639 1763,-479 1686.1053,-381.2157 1567.8947,-510.7843 1491,-413 1465.3128,-380.3345 1449.4444,-319.5 1491,-319.5"/>
<polygon fill="#000000" stroke="#000000" points="1772.9402,-595.4078 1762.5085,-592.0269 1767.9701,-595.9539 1763,-596.5 1763,-596.5 1763,-596.5 1767.9701,-595.9539 1763.4915,-600.9731 1772.9402,-595.4078 1772.9402,-595.4078"/>
<text text-anchor="start" x="1457.538" y="-606.5" font-family="Arial" font-size="10.00" fill="#000000">FOREIGN KEY (object_parent_id) REFERENCES object(object_id)</text>
</g>
<!-- public.object_relationship&#45;&gt;public.qualifier -->
<g id="edge14" class="edge">
<title>public.object_relationship:qualifier_id&#45;&gt;public.qualifier:qualifier_id</title>
<path fill="none" stroke="#000000" d="M1409.7142,-535.5325C1334.581,-519.878 1479.8078,-319.5 1386,-319.5"/>
<polygon fill="#000000" stroke="#000000" points="1410.0439,-535.5635 1419.5786,-540.9802 1415.022,-536.0317 1420,-536.5 1420,-536.5 1420,-536.5 1415.022,-536.0317 1420.4214,-532.0198 1410.0439,-535.5635 1410.0439,-535.5635"/>
<text text-anchor="start" x="1427.0005" y="-520.5" font-family="Arial" font-size="10.00" fill="#000000">FOREIGN KEY (qualifier_id) REFERENCES qualifier(qualifier_id)</text>
</g>
</g>
</svg>
