<?xml version="1.0" encoding="UTF-8" standalone="no"?>
<!DOCTYPE svg PUBLIC "-//W3C//DTD SVG 1.1//EN"
 "http://www.w3.org/Graphics/SVG/1.1/DTD/svg11.dtd">
<!-- Generated by graphviz version 2.40.1 (20161225.0304)
 -->
<!-- Title: public.object_type Pages: 1 -->
<svg width="823pt" height="442pt"
 viewBox="0.00 0.00 823.00 442.00" xmlns="http://www.w3.org/2000/svg" xmlns:xlink="http://www.w3.org/1999/xlink">
<g id="graph0" class="graph" transform="scale(1 1) rotate(0) translate(4 438)">
<title>public.object_type</title>
<polygon fill="#ffffff" stroke="transparent" points="-4,4 -4,-438 819,-438 819,4 -4,4"/>
<!-- public.object_type -->
<g id="node1" class="node">
<title>public.object_type</title>
<polygon fill="#efefef" stroke="transparent" points="280,-105.5 280,-140.5 565,-140.5 565,-105.5 280,-105.5"/>
<polygon fill="none" stroke="#000000" points="280,-105.5 280,-140.5 565,-140.5 565,-105.5 280,-105.5"/>
<text text-anchor="start" x="286.6935" y="-118.3" font-family="Arial Bold" font-size="18.00" fill="#000000">public.object_type</text>
<text text-anchor="start" x="430.7385" y="-118.3" font-family="Arial" font-size="14.00" fill="#000000">    </text>
<text text-anchor="start" x="464.9433" y="-118.3" font-family="Arial" font-size="14.00" fill="#666666">[BASE TABLE]</text>
<polygon fill="none" stroke="#000000" points="280,-75.5 280,-105.5 565,-105.5 565,-75.5 280,-75.5"/>
<text text-anchor="start" x="287" y="-86.9" font-family="Arial" font-size="14.00" fill="#000000">object_type_id </text>
<text text-anchor="start" x="381.1458" y="-86.9" font-family="Arial" font-size="14.00" fill="#666666">[integer]</text>
<polygon fill="none" stroke="#000000" points="280,-45.5 280,-75.5 565,-75.5 565,-45.5 280,-45.5"/>
<text text-anchor="start" x="287" y="-56.9" font-family="Arial" font-size="14.00" fill="#000000">name </text>
<text text-anchor="start" x="325.899" y="-56.9" font-family="Arial" font-size="14.00" fill="#666666">[varchar(255)]</text>
<polygon fill="none" stroke="#000000" stroke-width="3" points="278,-44.5 278,-142.5 566,-142.5 566,-44.5 278,-44.5"/>
</g>
<!-- public.object -->
<g id="node2" class="node">
<title>public.object</title>
<polygon fill="#efefef" stroke="transparent" points="111,-340.5 111,-375.5 352,-375.5 352,-340.5 111,-340.5"/>
<polygon fill="none" stroke="#000000" points="111,-340.5 111,-375.5 352,-375.5 352,-340.5 111,-340.5"/>
<text text-anchor="start" x="117.7039" y="-353.3" font-family="Arial Bold" font-size="18.00" fill="#000000">public.object</text>
<text text-anchor="start" x="217.7281" y="-353.3" font-family="Arial" font-size="14.00" fill="#000000">    </text>
<text text-anchor="start" x="251.9329" y="-353.3" font-family="Arial" font-size="14.00" fill="#666666">[BASE TABLE]</text>
<polygon fill="none" stroke="#000000" points="111,-310.5 111,-340.5 352,-340.5 352,-310.5 111,-310.5"/>
<text text-anchor="start" x="118" y="-321.9" font-family="Arial" font-size="14.00" fill="#000000">object_id    </text>
<text text-anchor="start" x="208.2216" y="-321.9" font-family="Arial" font-size="14.00" fill="#666666">[integer]</text>
<polygon fill="none" stroke="#000000" points="111,-280.5 111,-310.5 352,-310.5 352,-280.5 111,-280.5"/>
<text text-anchor="start" x="118" y="-291.9" font-family="Arial" font-size="14.00" fill="#000000">object_type_id    </text>
<text text-anchor="start" x="242.46" y="-291.9" font-family="Arial" font-size="14.00" fill="#666666">[integer]</text>
</g>
<!-- public.object&#45;&gt;public.object_type -->
<g id="edge1" class="edge">
<title>public.object:object_type_id&#45;&gt;public.object_type:object_type_id</title>
<path fill="none" stroke="#000000" d="M361.8982,-292.654C372.8674,-283.895 361.7211,-256.7985 352,-238 333.9873,-203.1673 298.0127,-221.8327 280,-187 260.2995,-148.9034 237.1111,-90.5 280,-90.5"/>
<polygon fill="#000000" stroke="#000000" points="361.6106,-292.7367 350.7565,-291.1752 356.8053,-294.1183 352,-295.5 352,-295.5 352,-295.5 356.8053,-294.1183 353.2435,-299.8248 361.6106,-292.7367 361.6106,-292.7367"/>
<text text-anchor="start" x="6.8055" y="-305.5" font-family="Arial" font-size="10.00" fill="#000000">FOREIGN KEY (object_type_id) REFERENCES object_type(object_type_id)</text>
</g>
<!-- public.object_attribute -->
<g id="node3" class="node">
<title>public.object_attribute</title>
<polygon fill="#efefef" stroke="transparent" points="456,-355.5 456,-390.5 772,-390.5 772,-355.5 456,-355.5"/>
<polygon fill="none" stroke="#000000" points="456,-355.5 456,-390.5 772,-390.5 772,-355.5 456,-355.5"/>
<text text-anchor="start" x="462.6919" y="-368.3" font-family="Arial Bold" font-size="18.00" fill="#000000">public.object_attribute</text>
<text text-anchor="start" x="637.7401" y="-368.3" font-family="Arial" font-size="14.00" fill="#000000">    </text>
<text text-anchor="start" x="671.9449" y="-368.3" font-family="Arial" font-size="14.00" fill="#666666">[BASE TABLE]</text>
<polygon fill="none" stroke="#000000" points="456,-325.5 456,-355.5 772,-355.5 772,-325.5 456,-325.5"/>
<text text-anchor="start" x="463" y="-336.9" font-family="Arial" font-size="14.00" fill="#000000">object_attribute_id    </text>
<text text-anchor="start" x="611.5736" y="-336.9" font-family="Arial" font-size="14.00" fill="#666666">[integer]</text>
<polygon fill="none" stroke="#000000" points="456,-295.5 456,-325.5 772,-325.5 772,-295.5 456,-295.5"/>
<text text-anchor="start" x="463" y="-306.9" font-family="Arial" font-size="14.00" fill="#000000">object_type_id    </text>
<text text-anchor="start" x="587.46" y="-306.9" font-family="Arial" font-size="14.00" fill="#666666">[integer]</text>
<polygon fill="none" stroke="#000000" points="456,-265.5 456,-295.5 772,-295.5 772,-265.5 456,-265.5"/>
<text text-anchor="start" x="463" y="-276.9" font-family="Arial" font-size="14.00" fill="#000000">name    </text>
<text text-anchor="start" x="532.2132" y="-276.9" font-family="Arial" font-size="14.00" fill="#666666">[varchar(255)]</text>
</g>
<!-- public.object_attribute&#45;&gt;public.object_type -->
<g id="edge2" class="edge">
<title>public.object_attribute:object_type_id&#45;&gt;public.object_type:object_type_id</title>
<path fill="none" stroke="#000000" d="M445.8023,-308.8519C420.4516,-299.3808 435.5316,-251.316 456,-223 485.8879,-181.653 535.1121,-228.347 565,-187 590.1255,-152.2413 607.8889,-90.5 565,-90.5"/>
<polygon fill="#000000" stroke="#000000" points="446.1281,-308.9045 455.282,-314.9424 451.064,-309.7022 456,-310.5 456,-310.5 456,-310.5 451.064,-309.7022 456.718,-306.0576 446.1281,-308.9045 446.1281,-308.9045"/>
<text text-anchor="start" x="462.8055" y="-320.5" font-family="Arial" font-size="10.00" fill="#000000">FOREIGN KEY (object_type_id) REFERENCES object_type(object_type_id)</text>
</g>
</g>
</svg>
