<?xml version="1.0" encoding="UTF-8" standalone="no"?>
<!DOCTYPE svg PUBLIC "-//W3C//DTD SVG 1.1//EN"
 "http://www.w3.org/Graphics/SVG/1.1/DTD/svg11.dtd">
<!-- Generated by graphviz version 2.40.1 (20161225.0304)
 -->
<!-- Title: public.object_attribute_value Pages: 1 -->
<svg width="1060pt" height="532pt"
 viewBox="0.00 0.00 1060.00 532.00" xmlns="http://www.w3.org/2000/svg" xmlns:xlink="http://www.w3.org/1999/xlink">
<g id="graph0" class="graph" transform="scale(1 1) rotate(0) translate(4 528)">
<title>public.object_attribute_value</title>
<polygon fill="#ffffff" stroke="transparent" points="-4,4 -4,-528 1056,-528 1056,4 -4,4"/>
<!-- public.object_attribute_value -->
<g id="node1" class="node">
<title>public.object_attribute_value</title>
<polygon fill="#efefef" stroke="transparent" points="279,-442.5 279,-477.5 648,-477.5 648,-442.5 279,-442.5"/>
<polygon fill="none" stroke="#000000" points="279,-442.5 279,-477.5 648,-477.5 648,-442.5 279,-442.5"/>
<text text-anchor="start" x="285.6824" y="-455.3" font-family="Arial Bold" font-size="18.00" fill="#000000">public.object_attribute_value</text>
<text text-anchor="start" x="513.7496" y="-455.3" font-family="Arial" font-size="14.00" fill="#000000">    </text>
<text text-anchor="start" x="547.9544" y="-455.3" font-family="Arial" font-size="14.00" fill="#666666">[BASE TABLE]</text>
<polygon fill="none" stroke="#000000" points="279,-412.5 279,-442.5 648,-442.5 648,-412.5 279,-412.5"/>
<text text-anchor="start" x="286" y="-423.9" font-family="Arial" font-size="14.00" fill="#000000">object_attribute_value_id </text>
<text text-anchor="start" x="445.4964" y="-423.9" font-family="Arial" font-size="14.00" fill="#666666">[integer]</text>
<polygon fill="none" stroke="#000000" points="279,-382.5 279,-412.5 648,-412.5 648,-382.5 279,-382.5"/>
<text text-anchor="start" x="286" y="-393.9" font-family="Arial" font-size="14.00" fill="#000000">object_id </text>
<text text-anchor="start" x="345.9074" y="-393.9" font-family="Arial" font-size="14.00" fill="#666666">[integer]</text>
<polygon fill="none" stroke="#000000" points="279,-352.5 279,-382.5 648,-382.5 648,-352.5 279,-352.5"/>
<text text-anchor="start" x="286" y="-363.9" font-family="Arial" font-size="14.00" fill="#000000">object_attribute_id </text>
<text text-anchor="start" x="404.2594" y="-363.9" font-family="Arial" font-size="14.00" fill="#666666">[integer]</text>
<polygon fill="none" stroke="#000000" points="279,-322.5 279,-352.5 648,-352.5 648,-322.5 279,-322.5"/>
<text text-anchor="start" x="286" y="-333.9" font-family="Arial" font-size="14.00" fill="#000000">timestamp </text>
<text text-anchor="start" x="354.4474" y="-333.9" font-family="Arial" font-size="14.00" fill="#666666">[timestamp without time zone]</text>
<polygon fill="none" stroke="#000000" points="279,-292.5 279,-322.5 648,-322.5 648,-292.5 279,-292.5"/>
<text text-anchor="start" x="286" y="-303.9" font-family="Arial" font-size="14.00" fill="#000000">value </text>
<text text-anchor="start" x="323.345" y="-303.9" font-family="Arial" font-size="14.00" fill="#666666">[json]</text>
<polygon fill="none" stroke="#000000" stroke-width="3" points="277,-291.5 277,-479.5 649,-479.5 649,-291.5 277,-291.5"/>
</g>
<!-- public.object -->
<g id="node2" class="node">
<title>public.object</title>
<polygon fill="#efefef" stroke="transparent" points="152,-117.5 152,-152.5 393,-152.5 393,-117.5 152,-117.5"/>
<polygon fill="none" stroke="#000000" points="152,-117.5 152,-152.5 393,-152.5 393,-117.5 152,-117.5"/>
<text text-anchor="start" x="158.7039" y="-130.3" font-family="Arial Bold" font-size="18.00" fill="#000000">public.object</text>
<text text-anchor="start" x="258.7281" y="-130.3" font-family="Arial" font-size="14.00" fill="#000000">    </text>
<text text-anchor="start" x="292.9329" y="-130.3" font-family="Arial" font-size="14.00" fill="#666666">[BASE TABLE]</text>
<polygon fill="none" stroke="#000000" points="152,-87.5 152,-117.5 393,-117.5 393,-87.5 152,-87.5"/>
<text text-anchor="start" x="159" y="-98.9" font-family="Arial" font-size="14.00" fill="#000000">object_id    </text>
<text text-anchor="start" x="249.2216" y="-98.9" font-family="Arial" font-size="14.00" fill="#666666">[integer]</text>
<polygon fill="none" stroke="#000000" points="152,-57.5 152,-87.5 393,-87.5 393,-57.5 152,-57.5"/>
<text text-anchor="start" x="159" y="-68.9" font-family="Arial" font-size="14.00" fill="#000000">object_type_id    </text>
<text text-anchor="start" x="283.46" y="-68.9" font-family="Arial" font-size="14.00" fill="#666666">[integer]</text>
</g>
<!-- public.object_attribute_value&#45;&gt;public.object -->
<g id="edge1" class="edge">
<title>public.object_attribute_value:object_id&#45;&gt;public.object:object_id</title>
<path fill="none" stroke="#000000" d="M268.8849,-396.675C215.4656,-387.2927 244.6093,-300.0606 279,-247 309.1891,-200.422 362.8109,-242.578 393,-196 415.6017,-161.1284 434.5556,-102.5 393,-102.5"/>
<polygon fill="#000000" stroke="#000000" points="269.0331,-396.687 278.6341,-401.9851 274.0165,-397.0935 279,-397.5 279,-397.5 279,-397.5 274.0165,-397.0935 279.3659,-393.0149 269.0331,-396.687 269.0331,-396.687"/>
<text text-anchor="start" x="7.4895" y="-407.5" font-family="Arial" font-size="10.00" fill="#000000">FOREIGN KEY (object_id) REFERENCES object(object_id)</text>
</g>
<!-- public.object_attribute -->
<g id="node3" class="node">
<title>public.object_attribute</title>
<polygon fill="#efefef" stroke="transparent" points="497,-132.5 497,-167.5 813,-167.5 813,-132.5 497,-132.5"/>
<polygon fill="none" stroke="#000000" points="497,-132.5 497,-167.5 813,-167.5 813,-132.5 497,-132.5"/>
<text text-anchor="start" x="503.6919" y="-145.3" font-family="Arial Bold" font-size="18.00" fill="#000000">public.object_attribute</text>
<text text-anchor="start" x="678.7401" y="-145.3" font-family="Arial" font-size="14.00" fill="#000000">    </text>
<text text-anchor="start" x="712.9449" y="-145.3" font-family="Arial" font-size="14.00" fill="#666666">[BASE TABLE]</text>
<polygon fill="none" stroke="#000000" points="497,-102.5 497,-132.5 813,-132.5 813,-102.5 497,-102.5"/>
<text text-anchor="start" x="504" y="-113.9" font-family="Arial" font-size="14.00" fill="#000000">object_attribute_id    </text>
<text text-anchor="start" x="652.5736" y="-113.9" font-family="Arial" font-size="14.00" fill="#666666">[integer]</text>
<polygon fill="none" stroke="#000000" points="497,-72.5 497,-102.5 813,-102.5 813,-72.5 497,-72.5"/>
<text text-anchor="start" x="504" y="-83.9" font-family="Arial" font-size="14.00" fill="#000000">object_type_id    </text>
<text text-anchor="start" x="628.46" y="-83.9" font-family="Arial" font-size="14.00" fill="#666666">[integer]</text>
<polygon fill="none" stroke="#000000" points="497,-42.5 497,-72.5 813,-72.5 813,-42.5 497,-42.5"/>
<text text-anchor="start" x="504" y="-53.9" font-family="Arial" font-size="14.00" fill="#000000">name    </text>
<text text-anchor="start" x="573.2132" y="-53.9" font-family="Arial" font-size="14.00" fill="#666666">[varchar(255)]</text>
</g>
<!-- public.object_attribute_value&#45;&gt;public.object_attribute -->
<g id="edge2" class="edge">
<title>public.object_attribute_value:object_attribute_id&#45;&gt;public.object_attribute:object_attribute_id</title>
<path fill="none" stroke="#000000" d="M657.9663,-366.4367C698.7112,-356.9422 678.9203,-286.1586 648,-247 605.2447,-192.8531 539.7553,-265.1469 497,-211 471.2475,-178.386 455.4444,-117.5 497,-117.5"/>
<polygon fill="#000000" stroke="#000000" points="657.9436,-366.439 647.5225,-363.0254 652.9718,-366.9695 648,-367.5 648,-367.5 648,-367.5 652.9718,-366.9695 648.4775,-371.9746 657.9436,-366.439 657.9436,-366.439"/>
<text text-anchor="start" x="654.9695" y="-377.5" font-family="Arial" font-size="10.00" fill="#000000">FOREIGN KEY (object_attribute_id) REFERENCES object_attribute(object_attribute_id)</text>
</g>
</g>
</svg>
