<?xml version="1.0" encoding="UTF-8" standalone="no"?>
<!DOCTYPE svg PUBLIC "-//W3C//DTD SVG 1.1//EN"
 "http://www.w3.org/Graphics/SVG/1.1/DTD/svg11.dtd">
<!-- Generated by graphviz version 2.40.1 (20161225.0304)
 -->
<!-- Title: public.object Pages: 1 -->
<svg width="1411pt" height="719pt"
 viewBox="0.00 0.00 1411.00 719.00" xmlns="http://www.w3.org/2000/svg" xmlns:xlink="http://www.w3.org/1999/xlink">
<g id="graph0" class="graph" transform="scale(1 1) rotate(0) translate(4 715)">
<title>public.object</title>
<polygon fill="#ffffff" stroke="transparent" points="-4,4 -4,-715 1407,-715 1407,4 -4,4"/>
<!-- public.object -->
<g id="node1" class="node">
<title>public.object</title>
<polygon fill="#efefef" stroke="transparent" points="838.5,-322.5 838.5,-357.5 1079.5,-357.5 1079.5,-322.5 838.5,-322.5"/>
<polygon fill="none" stroke="#000000" points="838.5,-322.5 838.5,-357.5 1079.5,-357.5 1079.5,-322.5 838.5,-322.5"/>
<text text-anchor="start" x="845.2039" y="-335.3" font-family="Arial Bold" font-size="18.00" fill="#000000">public.object</text>
<text text-anchor="start" x="945.2281" y="-335.3" font-family="Arial" font-size="14.00" fill="#000000">    </text>
<text text-anchor="start" x="979.4329" y="-335.3" font-family="Arial" font-size="14.00" fill="#666666">[BASE TABLE]</text>
<polygon fill="none" stroke="#000000" points="838.5,-292.5 838.5,-322.5 1079.5,-322.5 1079.5,-292.5 838.5,-292.5"/>
<text text-anchor="start" x="845.5" y="-303.9" font-family="Arial" font-size="14.00" fill="#000000">object_id </text>
<text text-anchor="start" x="905.4074" y="-303.9" font-family="Arial" font-size="14.00" fill="#666666">[integer]</text>
<polygon fill="none" stroke="#000000" points="838.5,-262.5 838.5,-292.5 1079.5,-292.5 1079.5,-262.5 838.5,-262.5"/>
<text text-anchor="start" x="845.5" y="-273.9" font-family="Arial" font-size="14.00" fill="#000000">object_type_id </text>
<text text-anchor="start" x="939.6458" y="-273.9" font-family="Arial" font-size="14.00" fill="#666666">[integer]</text>
<polygon fill="none" stroke="#000000" stroke-width="3" points="836.5,-261.5 836.5,-359.5 1080.5,-359.5 1080.5,-261.5 836.5,-261.5"/>
</g>
<!-- public.object_type -->
<g id="node5" class="node">
<title>public.object_type</title>
<polygon fill="#efefef" stroke="transparent" points="816.5,-102.5 816.5,-137.5 1101.5,-137.5 1101.5,-102.5 816.5,-102.5"/>
<polygon fill="none" stroke="#000000" points="816.5,-102.5 816.5,-137.5 1101.5,-137.5 1101.5,-102.5 816.5,-102.5"/>
<text text-anchor="start" x="823.1935" y="-115.3" font-family="Arial Bold" font-size="18.00" fill="#000000">public.object_type</text>
<text text-anchor="start" x="967.2385" y="-115.3" font-family="Arial" font-size="14.00" fill="#000000">    </text>
<text text-anchor="start" x="1001.4433" y="-115.3" font-family="Arial" font-size="14.00" fill="#666666">[BASE TABLE]</text>
<polygon fill="none" stroke="#000000" points="816.5,-72.5 816.5,-102.5 1101.5,-102.5 1101.5,-72.5 816.5,-72.5"/>
<text text-anchor="start" x="823.5" y="-83.9" font-family="Arial" font-size="14.00" fill="#000000">object_type_id    </text>
<text text-anchor="start" x="947.96" y="-83.9" font-family="Arial" font-size="14.00" fill="#666666">[integer]</text>
<polygon fill="none" stroke="#000000" points="816.5,-42.5 816.5,-72.5 1101.5,-72.5 1101.5,-42.5 816.5,-42.5"/>
<text text-anchor="start" x="823.5" y="-53.9" font-family="Arial" font-size="14.00" fill="#000000">name    </text>
<text text-anchor="start" x="892.7132" y="-53.9" font-family="Arial" font-size="14.00" fill="#666666">[varchar(255)]</text>
</g>
<!-- public.object&#45;&gt;public.object_type -->
<g id="edge5" class="edge">
<title>public.object:object_type_id&#45;&gt;public.object_type:object_type_id</title>
<path fill="none" stroke="#000000" d="M958.7011,-252.314C948.8885,-194.6184 851.3868,-241.0381 816.5,-181 795.6218,-145.07 774.9444,-87.5 816.5,-87.5"/>
<polygon fill="#000000" stroke="#000000" points="958.718,-252.5306 955.0138,-262.8519 959.109,-257.5153 959.5,-262.5 959.5,-262.5 959.5,-262.5 959.109,-257.5153 963.9862,-262.1481 958.718,-252.5306 958.718,-252.5306"/>
<text text-anchor="start" x="966.3055" y="-272.5" font-family="Arial" font-size="10.00" fill="#000000">FOREIGN KEY (object_type_id) REFERENCES object_type(object_type_id)</text>
</g>
<!-- public.event_object_relationship -->
<g id="node2" class="node">
<title>public.event_object_relationship</title>
<polygon fill="#efefef" stroke="transparent" points="43.5,-617.5 43.5,-652.5 440.5,-652.5 440.5,-617.5 43.5,-617.5"/>
<polygon fill="none" stroke="#000000" points="43.5,-617.5 43.5,-652.5 440.5,-652.5 440.5,-617.5 43.5,-617.5"/>
<text text-anchor="start" x="50.1802" y="-630.3" font-family="Arial Bold" font-size="18.00" fill="#000000">public.event_object_relationship</text>
<text text-anchor="start" x="306.2518" y="-630.3" font-family="Arial" font-size="14.00" fill="#000000">    </text>
<text text-anchor="start" x="340.4566" y="-630.3" font-family="Arial" font-size="14.00" fill="#666666">[BASE TABLE]</text>
<polygon fill="none" stroke="#000000" points="43.5,-587.5 43.5,-617.5 440.5,-617.5 440.5,-587.5 43.5,-587.5"/>
<text text-anchor="start" x="50.5" y="-598.9" font-family="Arial" font-size="14.00" fill="#000000">event_object_relationship_id    </text>
<text text-anchor="start" x="262.0918" y="-598.9" font-family="Arial" font-size="14.00" fill="#666666">[integer]</text>
<polygon fill="none" stroke="#000000" points="43.5,-557.5 43.5,-587.5 440.5,-587.5 440.5,-557.5 43.5,-557.5"/>
<text text-anchor="start" x="50.5" y="-568.9" font-family="Arial" font-size="14.00" fill="#000000">event_id    </text>
<text text-anchor="start" x="137.615" y="-568.9" font-family="Arial" font-size="14.00" fill="#666666">[integer]</text>
<polygon fill="none" stroke="#000000" points="43.5,-527.5 43.5,-557.5 440.5,-557.5 440.5,-527.5 43.5,-527.5"/>
<text text-anchor="start" x="50.5" y="-538.9" font-family="Arial" font-size="14.00" fill="#000000">object_id    </text>
<text text-anchor="start" x="140.7216" y="-538.9" font-family="Arial" font-size="14.00" fill="#666666">[integer]</text>
<polygon fill="none" stroke="#000000" points="43.5,-497.5 43.5,-527.5 440.5,-527.5 440.5,-497.5 43.5,-497.5"/>
<text text-anchor="start" x="50.5" y="-508.9" font-family="Arial" font-size="14.00" fill="#000000">qualifier_id    </text>
<text text-anchor="start" x="152.378" y="-508.9" font-family="Arial" font-size="14.00" fill="#666666">[integer]</text>
</g>
<!-- public.event_object_relationship&#45;&gt;public.object -->
<g id="edge1" class="edge">
<title>public.event_object_relationship:object_id&#45;&gt;public.object:object_id</title>
<path fill="none" stroke="#000000" d="M450.8843,-541.2981C485.973,-532.0354 456.7631,-471.5229 491.5,-440 613.7498,-329.0613 673.417,-307.5 838.5,-307.5"/>
<polygon fill="#000000" stroke="#000000" points="450.4337,-541.3502 439.9826,-538.0298 445.4668,-541.9251 440.5,-542.5 440.5,-542.5 440.5,-542.5 445.4668,-541.9251 441.0174,-546.9702 450.4337,-541.3502 450.4337,-541.3502"/>
<text text-anchor="start" x="308.4895" y="-526.5" font-family="Arial" font-size="10.00" fill="#000000">FOREIGN KEY (object_id) REFERENCES object(object_id)</text>
</g>
<!-- public.object_attribute_value -->
<g id="node3" class="node">
<title>public.object_attribute_value</title>
<polygon fill="#efefef" stroke="transparent" points="544.5,-632.5 544.5,-667.5 913.5,-667.5 913.5,-632.5 544.5,-632.5"/>
<polygon fill="none" stroke="#000000" points="544.5,-632.5 544.5,-667.5 913.5,-667.5 913.5,-632.5 544.5,-632.5"/>
<text text-anchor="start" x="551.1824" y="-645.3" font-family="Arial Bold" font-size="18.00" fill="#000000">public.object_attribute_value</text>
<text text-anchor="start" x="779.2496" y="-645.3" font-family="Arial" font-size="14.00" fill="#000000">    </text>
<text text-anchor="start" x="813.4544" y="-645.3" font-family="Arial" font-size="14.00" fill="#666666">[BASE TABLE]</text>
<polygon fill="none" stroke="#000000" points="544.5,-602.5 544.5,-632.5 913.5,-632.5 913.5,-602.5 544.5,-602.5"/>
<text text-anchor="start" x="551.5" y="-613.9" font-family="Arial" font-size="14.00" fill="#000000">object_attribute_value_id    </text>
<text text-anchor="start" x="741.3106" y="-613.9" font-family="Arial" font-size="14.00" fill="#666666">[integer]</text>
<polygon fill="none" stroke="#000000" points="544.5,-572.5 544.5,-602.5 913.5,-602.5 913.5,-572.5 544.5,-572.5"/>
<text text-anchor="start" x="551.5" y="-583.9" font-family="Arial" font-size="14.00" fill="#000000">object_id    </text>
<text text-anchor="start" x="641.7216" y="-583.9" font-family="Arial" font-size="14.00" fill="#666666">[integer]</text>
<polygon fill="none" stroke="#000000" points="544.5,-542.5 544.5,-572.5 913.5,-572.5 913.5,-542.5 544.5,-542.5"/>
<text text-anchor="start" x="551.5" y="-553.9" font-family="Arial" font-size="14.00" fill="#000000">object_attribute_id    </text>
<text text-anchor="start" x="700.0736" y="-553.9" font-family="Arial" font-size="14.00" fill="#666666">[integer]</text>
<polygon fill="none" stroke="#000000" points="544.5,-512.5 544.5,-542.5 913.5,-542.5 913.5,-512.5 544.5,-512.5"/>
<text text-anchor="start" x="551.5" y="-523.9" font-family="Arial" font-size="14.00" fill="#000000">timestamp    </text>
<text text-anchor="start" x="650.2616" y="-523.9" font-family="Arial" font-size="14.00" fill="#666666">[timestamp without time zone]</text>
<polygon fill="none" stroke="#000000" points="544.5,-482.5 544.5,-512.5 913.5,-512.5 913.5,-482.5 544.5,-482.5"/>
<text text-anchor="start" x="551.5" y="-493.9" font-family="Arial" font-size="14.00" fill="#000000">value    </text>
<text text-anchor="start" x="619.1592" y="-493.9" font-family="Arial" font-size="14.00" fill="#666666">[json]</text>
</g>
<!-- public.object_attribute_value&#45;&gt;public.object -->
<g id="edge2" class="edge">
<title>public.object_attribute_value:object_id&#45;&gt;public.object:object_id</title>
<path fill="none" stroke="#000000" d="M923.7302,-586.6378C975.5706,-577.1936 946.4356,-492.3424 913.5,-440 893.8084,-408.7054 858.1916,-435.2946 838.5,-404 815.6585,-367.6995 795.6111,-307.5 838.5,-307.5"/>
<polygon fill="#000000" stroke="#000000" points="923.4647,-586.6601 913.122,-583.0159 918.4823,-587.08 913.5,-587.5 913.5,-587.5 913.5,-587.5 918.4823,-587.08 913.878,-591.9841 923.4647,-586.6601 923.4647,-586.6601"/>
<text text-anchor="start" x="920.9895" y="-597.5" font-family="Arial" font-size="10.00" fill="#000000">FOREIGN KEY (object_id) REFERENCES object(object_id)</text>
</g>
<!-- public.object_relationship -->
<g id="node4" class="node">
<title>public.object_relationship</title>
<polygon fill="#efefef" stroke="transparent" points="1017.5,-617.5 1017.5,-652.5 1360.5,-652.5 1360.5,-617.5 1017.5,-617.5"/>
<polygon fill="none" stroke="#000000" points="1017.5,-617.5 1017.5,-652.5 1360.5,-652.5 1360.5,-617.5 1017.5,-617.5"/>
<text text-anchor="start" x="1024.1937" y="-630.3" font-family="Arial Bold" font-size="18.00" fill="#000000">public.object_relationship</text>
<text text-anchor="start" x="1226.2383" y="-630.3" font-family="Arial" font-size="14.00" fill="#000000">    </text>
<text text-anchor="start" x="1260.4431" y="-630.3" font-family="Arial" font-size="14.00" fill="#666666">[BASE TABLE]</text>
<polygon fill="none" stroke="#000000" points="1017.5,-587.5 1017.5,-617.5 1360.5,-617.5 1360.5,-587.5 1017.5,-587.5"/>
<text text-anchor="start" x="1024.5" y="-598.9" font-family="Arial" font-size="14.00" fill="#000000">object_relationship_id    </text>
<text text-anchor="start" x="1194.0708" y="-598.9" font-family="Arial" font-size="14.00" fill="#666666">[integer]</text>
<polygon fill="none" stroke="#000000" points="1017.5,-557.5 1017.5,-587.5 1360.5,-587.5 1360.5,-557.5 1017.5,-557.5"/>
<text text-anchor="start" x="1024.5" y="-568.9" font-family="Arial" font-size="14.00" fill="#000000">object_parent_id    </text>
<text text-anchor="start" x="1162.1858" y="-568.9" font-family="Arial" font-size="14.00" fill="#666666">[integer]</text>
<polygon fill="none" stroke="#000000" points="1017.5,-527.5 1017.5,-557.5 1360.5,-557.5 1360.5,-527.5 1017.5,-527.5"/>
<text text-anchor="start" x="1024.5" y="-538.9" font-family="Arial" font-size="14.00" fill="#000000">object_child_id    </text>
<text text-anchor="start" x="1151.2826" y="-538.9" font-family="Arial" font-size="14.00" fill="#666666">[integer]</text>
<polygon fill="none" stroke="#000000" points="1017.5,-497.5 1017.5,-527.5 1360.5,-527.5 1360.5,-497.5 1017.5,-497.5"/>
<text text-anchor="start" x="1024.5" y="-508.9" font-family="Arial" font-size="14.00" fill="#000000">qualifier_id    </text>
<text text-anchor="start" x="1126.378" y="-508.9" font-family="Arial" font-size="14.00" fill="#666666">[integer]</text>
</g>
<!-- public.object_relationship&#45;&gt;public.object -->
<g id="edge3" class="edge">
<title>public.object_relationship:object_child_id&#45;&gt;public.object:object_id</title>
<path fill="none" stroke="#000000" d="M1007.4739,-540.9533C983.0786,-532.0465 1002.5795,-486.5932 1017.5,-455 1032.737,-422.7367 1064.263,-436.2633 1079.5,-404 1097.8153,-365.2185 1122.3889,-307.5 1079.5,-307.5"/>
<polygon fill="#000000" stroke="#000000" points="1007.6169,-540.9753 1016.8139,-546.9474 1012.5585,-541.7376 1017.5,-542.5 1017.5,-542.5 1017.5,-542.5 1012.5585,-541.7376 1018.1861,-538.0526 1007.6169,-540.9753 1007.6169,-540.9753"/>
<text text-anchor="start" x="1024.932" y="-552.5" font-family="Arial" font-size="10.00" fill="#000000">FOREIGN KEY (object_child_id) REFERENCES object(object_id)</text>
</g>
<!-- public.object_relationship&#45;&gt;public.object -->
<g id="edge4" class="edge">
<title>public.object_relationship:object_parent_id&#45;&gt;public.object:object_id</title>
<path fill="none" stroke="#000000" d="M1007.1931,-571.3768C969.6772,-562.195 996.8541,-498.7163 1017.5,-455 1032.737,-422.7367 1064.263,-436.2633 1079.5,-404 1097.8153,-365.2185 1122.3889,-307.5 1079.5,-307.5"/>
<polygon fill="#000000" stroke="#000000" points="1007.5589,-571.4165 1017.0124,-576.9735 1012.5294,-571.9583 1017.5,-572.5 1017.5,-572.5 1017.5,-572.5 1012.5294,-571.9583 1017.9876,-568.0265 1007.5589,-571.4165 1007.5589,-571.4165"/>
<text text-anchor="start" x="1024.038" y="-582.5" font-family="Arial" font-size="10.00" fill="#000000">FOREIGN KEY (object_parent_id) REFERENCES object(object_id)</text>
</g>
</g>
</svg>
