<?xml version="1.0" encoding="UTF-8" standalone="no"?>
<!DOCTYPE svg PUBLIC "-//W3C//DTD SVG 1.1//EN"
 "http://www.w3.org/Graphics/SVG/1.1/DTD/svg11.dtd">
<!-- Generated by graphviz version 2.40.1 (20161225.0304)
 -->
<!-- Title: public.event Pages: 1 -->
<svg width="971pt" height="719pt"
 viewBox="0.00 0.00 970.50 719.00" xmlns="http://www.w3.org/2000/svg" xmlns:xlink="http://www.w3.org/1999/xlink">
<g id="graph0" class="graph" transform="scale(1 1) rotate(0) translate(4 715)">
<title>public.event</title>
<polygon fill="#ffffff" stroke="transparent" points="-4,4 -4,-715 966.5,-715 966.5,4 -4,4"/>
<!-- public.event -->
<g id="node1" class="node">
<title>public.event</title>
<polygon fill="#efefef" stroke="transparent" points="345,-352.5 345,-387.5 612,-387.5 612,-352.5 345,-352.5"/>
<polygon fill="none" stroke="#000000" points="345,-352.5 345,-387.5 612,-387.5 612,-352.5 345,-352.5"/>
<text text-anchor="start" x="366.701" y="-365.3" font-family="Arial Bold" font-size="18.00" fill="#000000">public.event</text>
<text text-anchor="start" x="462.731" y="-365.3" font-family="Arial" font-size="14.00" fill="#000000">    </text>
<text text-anchor="start" x="496.9358" y="-365.3" font-family="Arial" font-size="14.00" fill="#666666">[BASE TABLE]</text>
<polygon fill="none" stroke="#000000" points="345,-322.5 345,-352.5 612,-352.5 612,-322.5 345,-322.5"/>
<text text-anchor="start" x="352" y="-333.9" font-family="Arial" font-size="14.00" fill="#000000">event_id </text>
<text text-anchor="start" x="408.8008" y="-333.9" font-family="Arial" font-size="14.00" fill="#666666">[integer]</text>
<polygon fill="none" stroke="#000000" points="345,-292.5 345,-322.5 612,-322.5 612,-292.5 345,-292.5"/>
<text text-anchor="start" x="352" y="-303.9" font-family="Arial" font-size="14.00" fill="#000000">event_type_id </text>
<text text-anchor="start" x="443.0392" y="-303.9" font-family="Arial" font-size="14.00" fill="#666666">[integer]</text>
<polygon fill="none" stroke="#000000" points="345,-262.5 345,-292.5 612,-292.5 612,-262.5 345,-262.5"/>
<text text-anchor="start" x="351.7062" y="-273.9" font-family="Arial" font-size="14.00" fill="#000000">timestamp </text>
<text text-anchor="start" x="420.1536" y="-273.9" font-family="Arial" font-size="14.00" fill="#666666">[timestamp without time zone]</text>
<polygon fill="none" stroke="#000000" stroke-width="3" points="343,-261.5 343,-389.5 613,-389.5 613,-261.5 343,-261.5"/>
</g>
<!-- public.event_type -->
<g id="node4" class="node">
<title>public.event_type</title>
<polygon fill="#efefef" stroke="transparent" points="338,-102.5 338,-137.5 619,-137.5 619,-102.5 338,-102.5"/>
<polygon fill="none" stroke="#000000" points="338,-102.5 338,-137.5 619,-137.5 619,-102.5 338,-102.5"/>
<text text-anchor="start" x="344.6906" y="-115.3" font-family="Arial Bold" font-size="18.00" fill="#000000">public.event_type</text>
<text text-anchor="start" x="484.7414" y="-115.3" font-family="Arial" font-size="14.00" fill="#000000">    </text>
<text text-anchor="start" x="518.9462" y="-115.3" font-family="Arial" font-size="14.00" fill="#666666">[BASE TABLE]</text>
<polygon fill="none" stroke="#000000" points="338,-72.5 338,-102.5 619,-102.5 619,-72.5 338,-72.5"/>
<text text-anchor="start" x="345" y="-83.9" font-family="Arial" font-size="14.00" fill="#000000">event_type_id    </text>
<text text-anchor="start" x="466.3534" y="-83.9" font-family="Arial" font-size="14.00" fill="#666666">[integer]</text>
<polygon fill="none" stroke="#000000" points="338,-42.5 338,-72.5 619,-72.5 619,-42.5 338,-42.5"/>
<text text-anchor="start" x="345" y="-53.9" font-family="Arial" font-size="14.00" fill="#000000">name    </text>
<text text-anchor="start" x="414.2132" y="-53.9" font-family="Arial" font-size="14.00" fill="#666666">[varchar(255)]</text>
</g>
<!-- public.event&#45;&gt;public.event_type -->
<g id="edge3" class="edge">
<title>public.event:event_type_id&#45;&gt;public.event_type:event_type_id</title>
<path fill="none" stroke="#000000" d="M335.0197,-306.7034C246.8101,-292.3032 243.612,-87.5 338,-87.5"/>
<polygon fill="#000000" stroke="#000000" points="335.0317,-306.7043 344.6419,-311.9857 340.0159,-307.1021 345,-307.5 345,-307.5 345,-307.5 340.0159,-307.1021 345.3581,-303.0143 335.0317,-306.7043 335.0317,-306.7043"/>
<text text-anchor="start" x="7.134" y="-317.5" font-family="Arial" font-size="10.00" fill="#000000">FOREIGN KEY (event_type_id) REFERENCES event_type(event_type_id)</text>
</g>
<!-- public.event_attribute_value -->
<g id="node2" class="node">
<title>public.event_attribute_value</title>
<polygon fill="#efefef" stroke="transparent" points="54,-632.5 54,-667.5 419,-667.5 419,-632.5 54,-632.5"/>
<polygon fill="none" stroke="#000000" points="54,-632.5 54,-667.5 419,-667.5 419,-632.5 54,-632.5"/>
<text text-anchor="start" x="60.6795" y="-645.3" font-family="Arial Bold" font-size="18.00" fill="#000000">public.event_attribute_value</text>
<text text-anchor="start" x="284.7525" y="-645.3" font-family="Arial" font-size="14.00" fill="#000000">    </text>
<text text-anchor="start" x="318.9573" y="-645.3" font-family="Arial" font-size="14.00" fill="#666666">[BASE TABLE]</text>
<polygon fill="none" stroke="#000000" points="54,-602.5 54,-632.5 419,-632.5 419,-602.5 54,-602.5"/>
<text text-anchor="start" x="61" y="-613.9" font-family="Arial" font-size="14.00" fill="#000000">event_attribute_value_id    </text>
<text text-anchor="start" x="247.704" y="-613.9" font-family="Arial" font-size="14.00" fill="#666666">[integer]</text>
<polygon fill="none" stroke="#000000" points="54,-572.5 54,-602.5 419,-602.5 419,-572.5 54,-572.5"/>
<text text-anchor="start" x="61" y="-583.9" font-family="Arial" font-size="14.00" fill="#000000">event_id    </text>
<text text-anchor="start" x="148.115" y="-583.9" font-family="Arial" font-size="14.00" fill="#666666">[integer]</text>
<polygon fill="none" stroke="#000000" points="54,-542.5 54,-572.5 419,-572.5 419,-542.5 54,-542.5"/>
<text text-anchor="start" x="61" y="-553.9" font-family="Arial" font-size="14.00" fill="#000000">event_attribute_id    </text>
<text text-anchor="start" x="206.467" y="-553.9" font-family="Arial" font-size="14.00" fill="#666666">[integer]</text>
<polygon fill="none" stroke="#000000" points="54,-512.5 54,-542.5 419,-542.5 419,-512.5 54,-512.5"/>
<text text-anchor="start" x="61" y="-523.9" font-family="Arial" font-size="14.00" fill="#000000">value    </text>
<text text-anchor="start" x="128.6592" y="-523.9" font-family="Arial" font-size="14.00" fill="#666666">[json]</text>
</g>
<!-- public.event_attribute_value&#45;&gt;public.event -->
<g id="edge1" class="edge">
<title>public.event_attribute_value:event_id&#45;&gt;public.event:event_id</title>
<path fill="none" stroke="#000000" d="M429.3894,-586.3317C467.5641,-576.7899 444.6403,-510.9871 419,-470 399.603,-438.993 364.397,-465.007 345,-434 322.254,-397.6396 302.1111,-337.5 345,-337.5"/>
<polygon fill="#000000" stroke="#000000" points="428.9374,-586.3824 418.4971,-583.0282 423.9687,-586.9412 419,-587.5 419,-587.5 419,-587.5 423.9687,-586.9412 419.5029,-591.9718 428.9374,-586.3824 428.9374,-586.3824"/>
<text text-anchor="start" x="425.818" y="-597.5" font-family="Arial" font-size="10.00" fill="#000000">FOREIGN KEY (event_id) REFERENCES event(event_id)</text>
</g>
<!-- public.event_object_relationship -->
<g id="node3" class="node">
<title>public.event_object_relationship</title>
<polygon fill="#efefef" stroke="transparent" points="523,-632.5 523,-667.5 920,-667.5 920,-632.5 523,-632.5"/>
<polygon fill="none" stroke="#000000" points="523,-632.5 523,-667.5 920,-667.5 920,-632.5 523,-632.5"/>
<text text-anchor="start" x="529.6802" y="-645.3" font-family="Arial Bold" font-size="18.00" fill="#000000">public.event_object_relationship</text>
<text text-anchor="start" x="785.7518" y="-645.3" font-family="Arial" font-size="14.00" fill="#000000">    </text>
<text text-anchor="start" x="819.9566" y="-645.3" font-family="Arial" font-size="14.00" fill="#666666">[BASE TABLE]</text>
<polygon fill="none" stroke="#000000" points="523,-602.5 523,-632.5 920,-632.5 920,-602.5 523,-602.5"/>
<text text-anchor="start" x="530" y="-613.9" font-family="Arial" font-size="14.00" fill="#000000">event_object_relationship_id    </text>
<text text-anchor="start" x="741.5918" y="-613.9" font-family="Arial" font-size="14.00" fill="#666666">[integer]</text>
<polygon fill="none" stroke="#000000" points="523,-572.5 523,-602.5 920,-602.5 920,-572.5 523,-572.5"/>
<text text-anchor="start" x="530" y="-583.9" font-family="Arial" font-size="14.00" fill="#000000">event_id    </text>
<text text-anchor="start" x="617.115" y="-583.9" font-family="Arial" font-size="14.00" fill="#666666">[integer]</text>
<polygon fill="none" stroke="#000000" points="523,-542.5 523,-572.5 920,-572.5 920,-542.5 523,-542.5"/>
<text text-anchor="start" x="530" y="-553.9" font-family="Arial" font-size="14.00" fill="#000000">object_id    </text>
<text text-anchor="start" x="620.2216" y="-553.9" font-family="Arial" font-size="14.00" fill="#666666">[integer]</text>
<polygon fill="none" stroke="#000000" points="523,-512.5 523,-542.5 920,-542.5 920,-512.5 523,-512.5"/>
<text text-anchor="start" x="530" y="-523.9" font-family="Arial" font-size="14.00" fill="#000000">qualifier_id    </text>
<text text-anchor="start" x="631.878" y="-523.9" font-family="Arial" font-size="14.00" fill="#666666">[integer]</text>
</g>
<!-- public.event_object_relationship&#45;&gt;public.event -->
<g id="edge2" class="edge">
<title>public.event_object_relationship:event_id&#45;&gt;public.event:event_id</title>
<path fill="none" stroke="#000000" d="M512.5877,-586.3168C474.2301,-576.6562 495.9731,-510.0864 523,-470 546.8531,-434.621 588.1469,-469.379 612,-434 635.976,-398.4387 654.8889,-337.5 612,-337.5"/>
<polygon fill="#000000" stroke="#000000" points="513.0639,-586.3708 522.4919,-591.9712 518.032,-586.9354 523,-587.5 523,-587.5 523,-587.5 518.032,-586.9354 523.5081,-583.0288 513.0639,-586.3708 513.0639,-586.3708"/>
<text text-anchor="start" x="529.818" y="-571.5" font-family="Arial" font-size="10.00" fill="#000000">FOREIGN KEY (event_id) REFERENCES event(event_id)</text>
</g>
</g>
</svg>
