<?xml version="1.0" encoding="UTF-8" standalone="no"?>
<!DOCTYPE svg PUBLIC "-//W3C//DTD SVG 1.1//EN"
 "http://www.w3.org/Graphics/SVG/1.1/DTD/svg11.dtd">
<!-- Generated by graphviz version 2.40.1 (20161225.0304)
 -->
<!-- Title: public.event_object_relationship Pages: 1 -->
<svg width="1097pt" height="502pt"
 viewBox="0.00 0.00 1096.50 502.00" xmlns="http://www.w3.org/2000/svg" xmlns:xlink="http://www.w3.org/1999/xlink">
<g id="graph0" class="graph" transform="scale(1 1) rotate(0) translate(4 498)">
<title>public.event_object_relationship</title>
<polygon fill="#ffffff" stroke="transparent" points="-4,4 -4,-498 1092.5,-498 1092.5,4 -4,4"/>
<!-- public.event_object_relationship -->
<g id="node1" class="node">
<title>public.event_object_relationship</title>
<polygon fill="#efefef" stroke="transparent" points="366.5,-412.5 366.5,-447.5 763.5,-447.5 763.5,-412.5 366.5,-412.5"/>
<polygon fill="none" stroke="#000000" points="366.5,-412.5 366.5,-447.5 763.5,-447.5 763.5,-412.5 366.5,-412.5"/>
<text text-anchor="start" x="373.1802" y="-425.3" font-family="Arial Bold" font-size="18.00" fill="#000000">public.event_object_relationship</text>
<text text-anchor="start" x="629.2518" y="-425.3" font-family="Arial" font-size="14.00" fill="#000000">    </text>
<text text-anchor="start" x="663.4566" y="-425.3" font-family="Arial" font-size="14.00" fill="#666666">[BASE TABLE]</text>
<polygon fill="none" stroke="#000000" points="366.5,-382.5 366.5,-412.5 763.5,-412.5 763.5,-382.5 366.5,-382.5"/>
<text text-anchor="start" x="373.5" y="-393.9" font-family="Arial" font-size="14.00" fill="#000000">event_object_relationship_id </text>
<text text-anchor="start" x="554.7776" y="-393.9" font-family="Arial" font-size="14.00" fill="#666666">[integer]</text>
<polygon fill="none" stroke="#000000" points="366.5,-352.5 366.5,-382.5 763.5,-382.5 763.5,-352.5 366.5,-352.5"/>
<text text-anchor="start" x="373.5" y="-363.9" font-family="Arial" font-size="14.00" fill="#000000">event_id </text>
<text text-anchor="start" x="430.3008" y="-363.9" font-family="Arial" font-size="14.00" fill="#666666">[integer]</text>
<polygon fill="none" stroke="#000000" points="366.5,-322.5 366.5,-352.5 763.5,-352.5 763.5,-322.5 366.5,-322.5"/>
<text text-anchor="start" x="373.5" y="-333.9" font-family="Arial" font-size="14.00" fill="#000000">object_id </text>
<text text-anchor="start" x="433.4074" y="-333.9" font-family="Arial" font-size="14.00" fill="#666666">[integer]</text>
<polygon fill="none" stroke="#000000" points="366.5,-292.5 366.5,-322.5 763.5,-322.5 763.5,-292.5 366.5,-292.5"/>
<text text-anchor="start" x="373.5" y="-303.9" font-family="Arial" font-size="14.00" fill="#000000">qualifier_id </text>
<text text-anchor="start" x="445.0638" y="-303.9" font-family="Arial" font-size="14.00" fill="#666666">[integer]</text>
<polygon fill="none" stroke="#000000" stroke-width="3" points="364.5,-291.5 364.5,-449.5 764.5,-449.5 764.5,-291.5 364.5,-291.5"/>
</g>
<!-- public.event -->
<g id="node2" class="node">
<title>public.event</title>
<polygon fill="#efefef" stroke="transparent" points="43.5,-132.5 43.5,-167.5 340.5,-167.5 340.5,-132.5 43.5,-132.5"/>
<polygon fill="none" stroke="#000000" points="43.5,-132.5 43.5,-167.5 340.5,-167.5 340.5,-132.5 43.5,-132.5"/>
<text text-anchor="start" x="80.201" y="-145.3" font-family="Arial Bold" font-size="18.00" fill="#000000">public.event</text>
<text text-anchor="start" x="176.231" y="-145.3" font-family="Arial" font-size="14.00" fill="#000000">    </text>
<text text-anchor="start" x="210.4358" y="-145.3" font-family="Arial" font-size="14.00" fill="#666666">[BASE TABLE]</text>
<polygon fill="none" stroke="#000000" points="43.5,-102.5 43.5,-132.5 340.5,-132.5 340.5,-102.5 43.5,-102.5"/>
<text text-anchor="start" x="50.5" y="-113.9" font-family="Arial" font-size="14.00" fill="#000000">event_id    </text>
<text text-anchor="start" x="137.615" y="-113.9" font-family="Arial" font-size="14.00" fill="#666666">[integer]</text>
<polygon fill="none" stroke="#000000" points="43.5,-72.5 43.5,-102.5 340.5,-102.5 340.5,-72.5 43.5,-72.5"/>
<text text-anchor="start" x="50.5" y="-83.9" font-family="Arial" font-size="14.00" fill="#000000">event_type_id    </text>
<text text-anchor="start" x="171.8534" y="-83.9" font-family="Arial" font-size="14.00" fill="#666666">[integer]</text>
<polygon fill="none" stroke="#000000" points="43.5,-42.5 43.5,-72.5 340.5,-72.5 340.5,-42.5 43.5,-42.5"/>
<text text-anchor="start" x="50.0491" y="-53.9" font-family="Arial" font-size="14.00" fill="#000000">timestamp    </text>
<text text-anchor="start" x="148.8107" y="-53.9" font-family="Arial" font-size="14.00" fill="#666666">[timestamp without time zone]</text>
</g>
<!-- public.event_object_relationship&#45;&gt;public.event -->
<g id="edge1" class="edge">
<title>public.event_object_relationship:event_id&#45;&gt;public.event:event_id</title>
<path fill="none" stroke="#000000" d="M356.3724,-366.6915C267.5588,-351.174 448.5013,-117.5 340.5,-117.5"/>
<polygon fill="#000000" stroke="#000000" points="356.5317,-366.7041 366.1418,-371.9857 361.5159,-367.102 366.5,-367.5 366.5,-367.5 366.5,-367.5 361.5159,-367.102 366.8582,-363.0143 356.5317,-366.7041 356.5317,-366.7041"/>
<text text-anchor="start" x="101.318" y="-377.5" font-family="Arial" font-size="10.00" fill="#000000">FOREIGN KEY (event_id) REFERENCES event(event_id)</text>
</g>
<!-- public.object -->
<g id="node3" class="node">
<title>public.object</title>
<polygon fill="#efefef" stroke="transparent" points="444.5,-117.5 444.5,-152.5 685.5,-152.5 685.5,-117.5 444.5,-117.5"/>
<polygon fill="none" stroke="#000000" points="444.5,-117.5 444.5,-152.5 685.5,-152.5 685.5,-117.5 444.5,-117.5"/>
<text text-anchor="start" x="451.2039" y="-130.3" font-family="Arial Bold" font-size="18.00" fill="#000000">public.object</text>
<text text-anchor="start" x="551.2281" y="-130.3" font-family="Arial" font-size="14.00" fill="#000000">    </text>
<text text-anchor="start" x="585.4329" y="-130.3" font-family="Arial" font-size="14.00" fill="#666666">[BASE TABLE]</text>
<polygon fill="none" stroke="#000000" points="444.5,-87.5 444.5,-117.5 685.5,-117.5 685.5,-87.5 444.5,-87.5"/>
<text text-anchor="start" x="451.5" y="-98.9" font-family="Arial" font-size="14.00" fill="#000000">object_id    </text>
<text text-anchor="start" x="541.7216" y="-98.9" font-family="Arial" font-size="14.00" fill="#666666">[integer]</text>
<polygon fill="none" stroke="#000000" points="444.5,-57.5 444.5,-87.5 685.5,-87.5 685.5,-57.5 444.5,-57.5"/>
<text text-anchor="start" x="451.5" y="-68.9" font-family="Arial" font-size="14.00" fill="#000000">object_type_id    </text>
<text text-anchor="start" x="575.96" y="-68.9" font-family="Arial" font-size="14.00" fill="#666666">[integer]</text>
</g>
<!-- public.event_object_relationship&#45;&gt;public.object -->
<g id="edge2" class="edge">
<title>public.event_object_relationship:object_id&#45;&gt;public.object:object_id</title>
<path fill="none" stroke="#000000" d="M356.595,-336.0703C331.6316,-327.4521 355.6532,-281.6356 366.5,-247 372.3216,-228.4106 381.6408,-227.8004 391.5,-211 418.6628,-164.7136 390.8321,-102.5 444.5,-102.5"/>
<polygon fill="#000000" stroke="#000000" points="356.6026,-336.0713 365.8571,-341.9538 361.5513,-336.7856 366.5,-337.5 366.5,-337.5 366.5,-337.5 361.5513,-336.7856 367.1429,-333.0462 356.6026,-336.0713 356.6026,-336.0713"/>
<text text-anchor="start" x="94.9895" y="-347.5" font-family="Arial" font-size="10.00" fill="#000000">FOREIGN KEY (object_id) REFERENCES object(object_id)</text>
</g>
<!-- public.qualifier -->
<g id="node4" class="node">
<title>public.qualifier</title>
<polygon fill="#efefef" stroke="transparent" points="789.5,-117.5 789.5,-152.5 1045.5,-152.5 1045.5,-117.5 789.5,-117.5"/>
<polygon fill="none" stroke="#000000" points="789.5,-117.5 789.5,-152.5 1045.5,-152.5 1045.5,-117.5 789.5,-117.5"/>
<text text-anchor="start" x="796.2105" y="-130.3" font-family="Arial Bold" font-size="18.00" fill="#000000">public.qualifier</text>
<text text-anchor="start" x="911.2215" y="-130.3" font-family="Arial" font-size="14.00" fill="#000000">    </text>
<text text-anchor="start" x="945.4263" y="-130.3" font-family="Arial" font-size="14.00" fill="#666666">[BASE TABLE]</text>
<polygon fill="none" stroke="#000000" points="789.5,-87.5 789.5,-117.5 1045.5,-117.5 1045.5,-87.5 789.5,-87.5"/>
<text text-anchor="start" x="796.5" y="-98.9" font-family="Arial" font-size="14.00" fill="#000000">qualifier_id    </text>
<text text-anchor="start" x="898.378" y="-98.9" font-family="Arial" font-size="14.00" fill="#666666">[integer]</text>
<polygon fill="none" stroke="#000000" points="789.5,-57.5 789.5,-87.5 1045.5,-87.5 1045.5,-57.5 789.5,-57.5"/>
<text text-anchor="start" x="796.5" y="-68.9" font-family="Arial" font-size="14.00" fill="#000000">value    </text>
<text text-anchor="start" x="864.1592" y="-68.9" font-family="Arial" font-size="14.00" fill="#666666">[json]</text>
</g>
<!-- public.event_object_relationship&#45;&gt;public.qualifier -->
<g id="edge3" class="edge">
<title>public.event_object_relationship:qualifier_id&#45;&gt;public.qualifier:qualifier_id</title>
<path fill="none" stroke="#000000" d="M773.5759,-306.4937C842.8259,-291.0285 701.4259,-102.5 789.5,-102.5"/>
<polygon fill="#000000" stroke="#000000" points="773.4505,-306.5061 763.0528,-303.0223 768.4752,-307.0031 763.5,-307.5 763.5,-307.5 763.5,-307.5 768.4752,-307.0031 763.9472,-311.9777 773.4505,-306.5061 773.4505,-306.5061"/>
<text text-anchor="start" x="770.5005" y="-317.5" font-family="Arial" font-size="10.00" fill="#000000">FOREIGN KEY (qualifier_id) REFERENCES qualifier(qualifier_id)</text>
</g>
</g>
</svg>
