<?xml version="1.0" encoding="UTF-8" standalone="no"?>
<!DOCTYPE svg PUBLIC "-//W3C//DTD SVG 1.1//EN"
 "http://www.w3.org/Graphics/SVG/1.1/DTD/svg11.dtd">
<!-- Generated by graphviz version 2.40.1 (20161225.0304)
 -->
<!-- Title: public.event_attribute Pages: 1 -->
<svg width="1088pt" height="719pt"
 viewBox="0.00 0.00 1088.00 719.00" xmlns="http://www.w3.org/2000/svg" xmlns:xlink="http://www.w3.org/1999/xlink">
<g id="graph0" class="graph" transform="scale(1 1) rotate(0) translate(4 715)">
<title>public.event_attribute</title>
<polygon fill="#ffffff" stroke="transparent" points="-4,4 -4,-715 1084,-715 1084,4 -4,4"/>
<!-- public.event_attribute -->
<g id="node1" class="node">
<title>public.event_attribute</title>
<polygon fill="#efefef" stroke="transparent" points="345,-352.5 345,-387.5 657,-387.5 657,-352.5 345,-352.5"/>
<polygon fill="none" stroke="#000000" points="345,-352.5 345,-387.5 657,-387.5 657,-352.5 345,-352.5"/>
<text text-anchor="start" x="351.689" y="-365.3" font-family="Arial Bold" font-size="18.00" fill="#000000">public.event_attribute</text>
<text text-anchor="start" x="522.743" y="-365.3" font-family="Arial" font-size="14.00" fill="#000000">    </text>
<text text-anchor="start" x="556.9478" y="-365.3" font-family="Arial" font-size="14.00" fill="#666666">[BASE TABLE]</text>
<polygon fill="none" stroke="#000000" points="345,-322.5 345,-352.5 657,-352.5 657,-322.5 345,-322.5"/>
<text text-anchor="start" x="352" y="-333.9" font-family="Arial" font-size="14.00" fill="#000000">event_attribute_id </text>
<text text-anchor="start" x="467.1528" y="-333.9" font-family="Arial" font-size="14.00" fill="#666666">[integer]</text>
<polygon fill="none" stroke="#000000" points="345,-292.5 345,-322.5 657,-322.5 657,-292.5 345,-292.5"/>
<text text-anchor="start" x="352" y="-303.9" font-family="Arial" font-size="14.00" fill="#000000">event_type_id </text>
<text text-anchor="start" x="443.0392" y="-303.9" font-family="Arial" font-size="14.00" fill="#666666">[integer]</text>
<polygon fill="none" stroke="#000000" points="345,-262.5 345,-292.5 657,-292.5 657,-262.5 345,-262.5"/>
<text text-anchor="start" x="352" y="-273.9" font-family="Arial" font-size="14.00" fill="#000000">name </text>
<text text-anchor="start" x="390.899" y="-273.9" font-family="Arial" font-size="14.00" fill="#666666">[varchar(255)]</text>
<polygon fill="none" stroke="#000000" stroke-width="3" points="343.5,-261.5 343.5,-389.5 658.5,-389.5 658.5,-261.5 343.5,-261.5"/>
</g>
<!-- public.event_type -->
<g id="node3" class="node">
<title>public.event_type</title>
<polygon fill="#efefef" stroke="transparent" points="360,-102.5 360,-137.5 641,-137.5 641,-102.5 360,-102.5"/>
<polygon fill="none" stroke="#000000" points="360,-102.5 360,-137.5 641,-137.5 641,-102.5 360,-102.5"/>
<text text-anchor="start" x="366.6906" y="-115.3" font-family="Arial Bold" font-size="18.00" fill="#000000">public.event_type</text>
<text text-anchor="start" x="506.7414" y="-115.3" font-family="Arial" font-size="14.00" fill="#000000">    </text>
<text text-anchor="start" x="540.9462" y="-115.3" font-family="Arial" font-size="14.00" fill="#666666">[BASE TABLE]</text>
<polygon fill="none" stroke="#000000" points="360,-72.5 360,-102.5 641,-102.5 641,-72.5 360,-72.5"/>
<text text-anchor="start" x="367" y="-83.9" font-family="Arial" font-size="14.00" fill="#000000">event_type_id    </text>
<text text-anchor="start" x="488.3534" y="-83.9" font-family="Arial" font-size="14.00" fill="#666666">[integer]</text>
<polygon fill="none" stroke="#000000" points="360,-42.5 360,-72.5 641,-72.5 641,-42.5 360,-42.5"/>
<text text-anchor="start" x="367" y="-53.9" font-family="Arial" font-size="14.00" fill="#000000">name    </text>
<text text-anchor="start" x="436.2132" y="-53.9" font-family="Arial" font-size="14.00" fill="#666666">[varchar(255)]</text>
</g>
<!-- public.event_attribute&#45;&gt;public.event_type -->
<g id="edge2" class="edge">
<title>public.event_attribute:event_type_id&#45;&gt;public.event_type:event_type_id</title>
<path fill="none" stroke="#000000" d="M335.0719,-305.9824C307.4342,-296.4429 320.8309,-244.2866 345,-217 432.8705,-117.795 553.1295,-280.205 641,-181 668.5534,-149.8925 682.5556,-87.5 641,-87.5"/>
<polygon fill="#000000" stroke="#000000" points="335.1148,-305.9889 344.32,-311.9483 340.0574,-306.7444 345,-307.5 345,-307.5 345,-307.5 340.0574,-306.7444 345.68,-303.0517 335.1148,-305.9889 335.1148,-305.9889"/>
<text text-anchor="start" x="7.134" y="-317.5" font-family="Arial" font-size="10.00" fill="#000000">FOREIGN KEY (event_type_id) REFERENCES event_type(event_type_id)</text>
</g>
<!-- public.event_attribute_value -->
<g id="node2" class="node">
<title>public.event_attribute_value</title>
<polygon fill="#efefef" stroke="transparent" points="318,-632.5 318,-667.5 683,-667.5 683,-632.5 318,-632.5"/>
<polygon fill="none" stroke="#000000" points="318,-632.5 318,-667.5 683,-667.5 683,-632.5 318,-632.5"/>
<text text-anchor="start" x="324.6795" y="-645.3" font-family="Arial Bold" font-size="18.00" fill="#000000">public.event_attribute_value</text>
<text text-anchor="start" x="548.7525" y="-645.3" font-family="Arial" font-size="14.00" fill="#000000">    </text>
<text text-anchor="start" x="582.9573" y="-645.3" font-family="Arial" font-size="14.00" fill="#666666">[BASE TABLE]</text>
<polygon fill="none" stroke="#000000" points="318,-602.5 318,-632.5 683,-632.5 683,-602.5 318,-602.5"/>
<text text-anchor="start" x="325" y="-613.9" font-family="Arial" font-size="14.00" fill="#000000">event_attribute_value_id    </text>
<text text-anchor="start" x="511.704" y="-613.9" font-family="Arial" font-size="14.00" fill="#666666">[integer]</text>
<polygon fill="none" stroke="#000000" points="318,-572.5 318,-602.5 683,-602.5 683,-572.5 318,-572.5"/>
<text text-anchor="start" x="325" y="-583.9" font-family="Arial" font-size="14.00" fill="#000000">event_id    </text>
<text text-anchor="start" x="412.115" y="-583.9" font-family="Arial" font-size="14.00" fill="#666666">[integer]</text>
<polygon fill="none" stroke="#000000" points="318,-542.5 318,-572.5 683,-572.5 683,-542.5 318,-542.5"/>
<text text-anchor="start" x="325" y="-553.9" font-family="Arial" font-size="14.00" fill="#000000">event_attribute_id    </text>
<text text-anchor="start" x="470.467" y="-553.9" font-family="Arial" font-size="14.00" fill="#666666">[integer]</text>
<polygon fill="none" stroke="#000000" points="318,-512.5 318,-542.5 683,-542.5 683,-512.5 318,-512.5"/>
<text text-anchor="start" x="325" y="-523.9" font-family="Arial" font-size="14.00" fill="#000000">value    </text>
<text text-anchor="start" x="392.6592" y="-523.9" font-family="Arial" font-size="14.00" fill="#666666">[json]</text>
</g>
<!-- public.event_attribute_value&#45;&gt;public.event_attribute -->
<g id="edge1" class="edge">
<title>public.event_attribute_value:event_attribute_id&#45;&gt;public.event_attribute:event_attribute_id</title>
<path fill="none" stroke="#000000" d="M692.9479,-555.9061C719.2468,-546.3411 706.4624,-496.0941 683,-470 632.4956,-413.8308 395.5044,-490.1692 345,-434 316.3239,-402.1074 302.1111,-337.5 345,-337.5"/>
<polygon fill="#000000" stroke="#000000" points="692.8741,-555.9179 682.2881,-553.0567 687.937,-556.7089 683,-557.5 683,-557.5 683,-557.5 687.937,-556.7089 683.7119,-561.9433 692.8741,-555.9179 692.8741,-555.9179"/>
<text text-anchor="start" x="690.298" y="-567.5" font-family="Arial" font-size="10.00" fill="#000000">FOREIGN KEY (event_attribute_id) REFERENCES event_attribute(event_attribute_id)</text>
</g>
</g>
</svg>
