<?xml version="1.0" encoding="UTF-8" standalone="no"?>
<!DOCTYPE svg PUBLIC "-//W3C//DTD SVG 1.1//EN"
 "http://www.w3.org/Graphics/SVG/1.1/DTD/svg11.dtd">
<!-- Generated by graphviz version 2.40.1 (20161225.0304)
 -->
<!-- Title: public.object_attribute Pages: 1 -->
<svg width="1106pt" height="749pt"
 viewBox="0.00 0.00 1106.00 749.00" xmlns="http://www.w3.org/2000/svg" xmlns:xlink="http://www.w3.org/1999/xlink">
<g id="graph0" class="graph" transform="scale(1 1) rotate(0) translate(4 745)">
<title>public.object_attribute</title>
<polygon fill="#ffffff" stroke="transparent" points="-4,4 -4,-745 1102,-745 1102,4 -4,4"/>
<!-- public.object_attribute -->
<g id="node1" class="node">
<title>public.object_attribute</title>
<polygon fill="#efefef" stroke="transparent" points="352,-352.5 352,-387.5 668,-387.5 668,-352.5 352,-352.5"/>
<polygon fill="none" stroke="#000000" points="352,-352.5 352,-387.5 668,-387.5 668,-352.5 352,-352.5"/>
<text text-anchor="start" x="358.6919" y="-365.3" font-family="Arial Bold" font-size="18.00" fill="#000000">public.object_attribute</text>
<text text-anchor="start" x="533.7401" y="-365.3" font-family="Arial" font-size="14.00" fill="#000000">    </text>
<text text-anchor="start" x="567.9449" y="-365.3" font-family="Arial" font-size="14.00" fill="#666666">[BASE TABLE]</text>
<polygon fill="none" stroke="#000000" points="352,-322.5 352,-352.5 668,-352.5 668,-322.5 352,-322.5"/>
<text text-anchor="start" x="359" y="-333.9" font-family="Arial" font-size="14.00" fill="#000000">object_attribute_id </text>
<text text-anchor="start" x="477.2594" y="-333.9" font-family="Arial" font-size="14.00" fill="#666666">[integer]</text>
<polygon fill="none" stroke="#000000" points="352,-292.5 352,-322.5 668,-322.5 668,-292.5 352,-292.5"/>
<text text-anchor="start" x="359" y="-303.9" font-family="Arial" font-size="14.00" fill="#000000">object_type_id </text>
<text text-anchor="start" x="453.1458" y="-303.9" font-family="Arial" font-size="14.00" fill="#666666">[integer]</text>
<polygon fill="none" stroke="#000000" points="352,-262.5 352,-292.5 668,-292.5 668,-262.5 352,-262.5"/>
<text text-anchor="start" x="359" y="-273.9" font-family="Arial" font-size="14.00" fill="#000000">name </text>
<text text-anchor="start" x="397.899" y="-273.9" font-family="Arial" font-size="14.00" fill="#666666">[varchar(255)]</text>
<polygon fill="none" stroke="#000000" stroke-width="3" points="350.5,-261.5 350.5,-389.5 669.5,-389.5 669.5,-261.5 350.5,-261.5"/>
</g>
<!-- public.object_type -->
<g id="node3" class="node">
<title>public.object_type</title>
<polygon fill="#efefef" stroke="transparent" points="367,-102.5 367,-137.5 652,-137.5 652,-102.5 367,-102.5"/>
<polygon fill="none" stroke="#000000" points="367,-102.5 367,-137.5 652,-137.5 652,-102.5 367,-102.5"/>
<text text-anchor="start" x="373.6935" y="-115.3" font-family="Arial Bold" font-size="18.00" fill="#000000">public.object_type</text>
<text text-anchor="start" x="517.7385" y="-115.3" font-family="Arial" font-size="14.00" fill="#000000">    </text>
<text text-anchor="start" x="551.9433" y="-115.3" font-family="Arial" font-size="14.00" fill="#666666">[BASE TABLE]</text>
<polygon fill="none" stroke="#000000" points="367,-72.5 367,-102.5 652,-102.5 652,-72.5 367,-72.5"/>
<text text-anchor="start" x="374" y="-83.9" font-family="Arial" font-size="14.00" fill="#000000">object_type_id    </text>
<text text-anchor="start" x="498.46" y="-83.9" font-family="Arial" font-size="14.00" fill="#666666">[integer]</text>
<polygon fill="none" stroke="#000000" points="367,-42.5 367,-72.5 652,-72.5 652,-42.5 367,-42.5"/>
<text text-anchor="start" x="374" y="-53.9" font-family="Arial" font-size="14.00" fill="#000000">name    </text>
<text text-anchor="start" x="443.2132" y="-53.9" font-family="Arial" font-size="14.00" fill="#666666">[varchar(255)]</text>
</g>
<!-- public.object_attribute&#45;&gt;public.object_type -->
<g id="edge2" class="edge">
<title>public.object_attribute:object_type_id&#45;&gt;public.object_type:object_type_id</title>
<path fill="none" stroke="#000000" d="M342.0713,-305.9819C314.4301,-296.4393 327.8091,-244.2673 352,-217 441.1211,-116.545 562.8789,-281.455 652,-181 679.5782,-149.9145 693.5556,-87.5 652,-87.5"/>
<polygon fill="#000000" stroke="#000000" points="342.1149,-305.9884 351.3198,-311.9483 347.0574,-306.7442 352,-307.5 352,-307.5 352,-307.5 347.0574,-306.7442 352.6802,-303.0517 342.1149,-305.9884 342.1149,-305.9884"/>
<text text-anchor="start" x="6.8055" y="-317.5" font-family="Arial" font-size="10.00" fill="#000000">FOREIGN KEY (object_type_id) REFERENCES object_type(object_type_id)</text>
</g>
<!-- public.object_attribute_value -->
<g id="node2" class="node">
<title>public.object_attribute_value</title>
<polygon fill="#efefef" stroke="transparent" points="325,-662.5 325,-697.5 694,-697.5 694,-662.5 325,-662.5"/>
<polygon fill="none" stroke="#000000" points="325,-662.5 325,-697.5 694,-697.5 694,-662.5 325,-662.5"/>
<text text-anchor="start" x="331.6824" y="-675.3" font-family="Arial Bold" font-size="18.00" fill="#000000">public.object_attribute_value</text>
<text text-anchor="start" x="559.7496" y="-675.3" font-family="Arial" font-size="14.00" fill="#000000">    </text>
<text text-anchor="start" x="593.9544" y="-675.3" font-family="Arial" font-size="14.00" fill="#666666">[BASE TABLE]</text>
<polygon fill="none" stroke="#000000" points="325,-632.5 325,-662.5 694,-662.5 694,-632.5 325,-632.5"/>
<text text-anchor="start" x="332" y="-643.9" font-family="Arial" font-size="14.00" fill="#000000">object_attribute_value_id    </text>
<text text-anchor="start" x="521.8106" y="-643.9" font-family="Arial" font-size="14.00" fill="#666666">[integer]</text>
<polygon fill="none" stroke="#000000" points="325,-602.5 325,-632.5 694,-632.5 694,-602.5 325,-602.5"/>
<text text-anchor="start" x="332" y="-613.9" font-family="Arial" font-size="14.00" fill="#000000">object_id    </text>
<text text-anchor="start" x="422.2216" y="-613.9" font-family="Arial" font-size="14.00" fill="#666666">[integer]</text>
<polygon fill="none" stroke="#000000" points="325,-572.5 325,-602.5 694,-602.5 694,-572.5 325,-572.5"/>
<text text-anchor="start" x="332" y="-583.9" font-family="Arial" font-size="14.00" fill="#000000">object_attribute_id    </text>
<text text-anchor="start" x="480.5736" y="-583.9" font-family="Arial" font-size="14.00" fill="#666666">[integer]</text>
<polygon fill="none" stroke="#000000" points="325,-542.5 325,-572.5 694,-572.5 694,-542.5 325,-542.5"/>
<text text-anchor="start" x="332" y="-553.9" font-family="Arial" font-size="14.00" fill="#000000">timestamp    </text>
<text text-anchor="start" x="430.7616" y="-553.9" font-family="Arial" font-size="14.00" fill="#666666">[timestamp without time zone]</text>
<polygon fill="none" stroke="#000000" points="325,-512.5 325,-542.5 694,-542.5 694,-512.5 325,-512.5"/>
<text text-anchor="start" x="332" y="-523.9" font-family="Arial" font-size="14.00" fill="#000000">value    </text>
<text text-anchor="start" x="399.6592" y="-523.9" font-family="Arial" font-size="14.00" fill="#666666">[json]</text>
</g>
<!-- public.object_attribute_value&#45;&gt;public.object_attribute -->
<g id="edge1" class="edge">
<title>public.object_attribute_value:object_attribute_id&#45;&gt;public.object_attribute:object_attribute_id</title>
<path fill="none" stroke="#000000" d="M704.0028,-586.3741C743.7047,-576.6316 726.4837,-506.0825 694,-470 642.8696,-413.2049 403.1304,-490.7951 352,-434 323.3042,-402.1251 309.1111,-337.5 352,-337.5"/>
<polygon fill="#000000" stroke="#000000" points="703.9373,-586.3814 693.4966,-583.0282 698.9686,-586.9407 694,-587.5 694,-587.5 694,-587.5 698.9686,-586.9407 694.5034,-591.9718 703.9373,-586.3814 703.9373,-586.3814"/>
<text text-anchor="start" x="700.9695" y="-597.5" font-family="Arial" font-size="10.00" fill="#000000">FOREIGN KEY (object_attribute_id) REFERENCES object_attribute(object_attribute_id)</text>
</g>
</g>
</svg>
