<?xml version="1.0" encoding="UTF-8" standalone="no"?>
<!DOCTYPE svg PUBLIC "-//W3C//DTD SVG 1.1//EN"
 "http://www.w3.org/Graphics/SVG/1.1/DTD/svg11.dtd">
<!-- Generated by graphviz version 2.40.1 (20161225.0304)
 -->
<!-- Title: public.event_type Pages: 1 -->
<svg width="808pt" height="442pt"
 viewBox="0.00 0.00 807.50 442.00" xmlns="http://www.w3.org/2000/svg" xmlns:xlink="http://www.w3.org/1999/xlink">
<g id="graph0" class="graph" transform="scale(1 1) rotate(0) translate(4 438)">
<title>public.event_type</title>
<polygon fill="#ffffff" stroke="transparent" points="-4,4 -4,-438 803.5,-438 803.5,4 -4,4"/>
<!-- public.event_type -->
<g id="node1" class="node">
<title>public.event_type</title>
<polygon fill="#efefef" stroke="transparent" points="255.5,-105.5 255.5,-140.5 536.5,-140.5 536.5,-105.5 255.5,-105.5"/>
<polygon fill="none" stroke="#000000" points="255.5,-105.5 255.5,-140.5 536.5,-140.5 536.5,-105.5 255.5,-105.5"/>
<text text-anchor="start" x="262.1906" y="-118.3" font-family="Arial Bold" font-size="18.00" fill="#000000">public.event_type</text>
<text text-anchor="start" x="402.2414" y="-118.3" font-family="Arial" font-size="14.00" fill="#000000">    </text>
<text text-anchor="start" x="436.4462" y="-118.3" font-family="Arial" font-size="14.00" fill="#666666">[BASE TABLE]</text>
<polygon fill="none" stroke="#000000" points="255.5,-75.5 255.5,-105.5 536.5,-105.5 536.5,-75.5 255.5,-75.5"/>
<text text-anchor="start" x="262.5" y="-86.9" font-family="Arial" font-size="14.00" fill="#000000">event_type_id </text>
<text text-anchor="start" x="353.5392" y="-86.9" font-family="Arial" font-size="14.00" fill="#666666">[integer]</text>
<polygon fill="none" stroke="#000000" points="255.5,-45.5 255.5,-75.5 536.5,-75.5 536.5,-45.5 255.5,-45.5"/>
<text text-anchor="start" x="262.5" y="-56.9" font-family="Arial" font-size="14.00" fill="#000000">name </text>
<text text-anchor="start" x="301.399" y="-56.9" font-family="Arial" font-size="14.00" fill="#666666">[varchar(255)]</text>
<polygon fill="none" stroke="#000000" stroke-width="3" points="253.5,-44.5 253.5,-142.5 537.5,-142.5 537.5,-44.5 253.5,-44.5"/>
</g>
<!-- public.event -->
<g id="node2" class="node">
<title>public.event</title>
<polygon fill="#efefef" stroke="transparent" points="43.5,-355.5 43.5,-390.5 340.5,-390.5 340.5,-355.5 43.5,-355.5"/>
<polygon fill="none" stroke="#000000" points="43.5,-355.5 43.5,-390.5 340.5,-390.5 340.5,-355.5 43.5,-355.5"/>
<text text-anchor="start" x="80.201" y="-368.3" font-family="Arial Bold" font-size="18.00" fill="#000000">public.event</text>
<text text-anchor="start" x="176.231" y="-368.3" font-family="Arial" font-size="14.00" fill="#000000">    </text>
<text text-anchor="start" x="210.4358" y="-368.3" font-family="Arial" font-size="14.00" fill="#666666">[BASE TABLE]</text>
<polygon fill="none" stroke="#000000" points="43.5,-325.5 43.5,-355.5 340.5,-355.5 340.5,-325.5 43.5,-325.5"/>
<text text-anchor="start" x="50.5" y="-336.9" font-family="Arial" font-size="14.00" fill="#000000">event_id    </text>
<text text-anchor="start" x="137.615" y="-336.9" font-family="Arial" font-size="14.00" fill="#666666">[integer]</text>
<polygon fill="none" stroke="#000000" points="43.5,-295.5 43.5,-325.5 340.5,-325.5 340.5,-295.5 43.5,-295.5"/>
<text text-anchor="start" x="50.5" y="-306.9" font-family="Arial" font-size="14.00" fill="#000000">event_type_id    </text>
<text text-anchor="start" x="171.8534" y="-306.9" font-family="Arial" font-size="14.00" fill="#666666">[integer]</text>
<polygon fill="none" stroke="#000000" points="43.5,-265.5 43.5,-295.5 340.5,-295.5 340.5,-265.5 43.5,-265.5"/>
<text text-anchor="start" x="50.0491" y="-276.9" font-family="Arial" font-size="14.00" fill="#000000">timestamp    </text>
<text text-anchor="start" x="148.8107" y="-276.9" font-family="Arial" font-size="14.00" fill="#666666">[timestamp without time zone]</text>
</g>
<!-- public.event&#45;&gt;public.event_type -->
<g id="edge1" class="edge">
<title>public.event:event_type_id&#45;&gt;public.event_type:event_type_id</title>
<path fill="none" stroke="#000000" d="M350.6615,-308.877C375.8102,-299.5457 359.7959,-252.1276 340.5,-223 317.8423,-188.7978 278.1577,-221.2022 255.5,-187 231.8137,-151.2451 212.6111,-90.5 255.5,-90.5"/>
<polygon fill="#000000" stroke="#000000" points="350.3748,-308.9227 339.7902,-306.0563 345.4374,-309.7114 340.5,-310.5 340.5,-310.5 340.5,-310.5 345.4374,-309.7114 341.2098,-314.9437 350.3748,-308.9227 350.3748,-308.9227"/>
<text text-anchor="start" x="347.634" y="-320.5" font-family="Arial" font-size="10.00" fill="#000000">FOREIGN KEY (event_type_id) REFERENCES event_type(event_type_id)</text>
</g>
<!-- public.event_attribute -->
<g id="node3" class="node">
<title>public.event_attribute</title>
<polygon fill="#efefef" stroke="transparent" points="444.5,-355.5 444.5,-390.5 756.5,-390.5 756.5,-355.5 444.5,-355.5"/>
<polygon fill="none" stroke="#000000" points="444.5,-355.5 444.5,-390.5 756.5,-390.5 756.5,-355.5 444.5,-355.5"/>
<text text-anchor="start" x="451.189" y="-368.3" font-family="Arial Bold" font-size="18.00" fill="#000000">public.event_attribute</text>
<text text-anchor="start" x="622.243" y="-368.3" font-family="Arial" font-size="14.00" fill="#000000">    </text>
<text text-anchor="start" x="656.4478" y="-368.3" font-family="Arial" font-size="14.00" fill="#666666">[BASE TABLE]</text>
<polygon fill="none" stroke="#000000" points="444.5,-325.5 444.5,-355.5 756.5,-355.5 756.5,-325.5 444.5,-325.5"/>
<text text-anchor="start" x="451.5" y="-336.9" font-family="Arial" font-size="14.00" fill="#000000">event_attribute_id    </text>
<text text-anchor="start" x="596.967" y="-336.9" font-family="Arial" font-size="14.00" fill="#666666">[integer]</text>
<polygon fill="none" stroke="#000000" points="444.5,-295.5 444.5,-325.5 756.5,-325.5 756.5,-295.5 444.5,-295.5"/>
<text text-anchor="start" x="451.5" y="-306.9" font-family="Arial" font-size="14.00" fill="#000000">event_type_id    </text>
<text text-anchor="start" x="572.8534" y="-306.9" font-family="Arial" font-size="14.00" fill="#666666">[integer]</text>
<polygon fill="none" stroke="#000000" points="444.5,-265.5 444.5,-295.5 756.5,-295.5 756.5,-265.5 444.5,-265.5"/>
<text text-anchor="start" x="451.5" y="-276.9" font-family="Arial" font-size="14.00" fill="#000000">name    </text>
<text text-anchor="start" x="520.7132" y="-276.9" font-family="Arial" font-size="14.00" fill="#666666">[varchar(255)]</text>
</g>
<!-- public.event_attribute&#45;&gt;public.event_type -->
<g id="edge2" class="edge">
<title>public.event_attribute:event_type_id&#45;&gt;public.event_type:event_type_id</title>
<path fill="none" stroke="#000000" d="M434.3261,-308.8687C409.1084,-299.4909 424.8034,-251.8582 444.5,-223 469.2525,-186.7341 511.7475,-223.2659 536.5,-187 560.6781,-151.5758 579.3889,-90.5 536.5,-90.5"/>
<polygon fill="#000000" stroke="#000000" points="434.6261,-308.9167 443.7875,-314.9432 439.5631,-309.7083 444.5,-310.5 444.5,-310.5 444.5,-310.5 439.5631,-309.7083 445.2125,-306.0568 434.6261,-308.9167 434.6261,-308.9167"/>
<text text-anchor="start" x="451.634" y="-294.5" font-family="Arial" font-size="10.00" fill="#000000">FOREIGN KEY (event_type_id) REFERENCES event_type(event_type_id)</text>
</g>
</g>
</svg>
